<svg width="960" height="969" viewBox="0 0 960 969" fill="none" xmlns="http://www.w3.org/2000/svg">
<g filter="url(#filter0_bd_105_280)">
<path d="M672.953 151.227C727.843 184.416 767.84 241.859 800.178 302.28C832.516 362.701 857.195 426.1 859.322 490.776C861.45 555.453 841.026 620.979 807.837 680.124C774.648 739.268 728.694 791.605 671.677 823.092C614.66 854.579 546.58 865.216 479.351 864.365C411.696 863.089 344.893 849.898 290.854 816.709C237.241 783.095 195.968 729.907 161.928 672.039C127.462 614.172 100.23 551.623 100.23 489.5C100.23 427.377 127.462 364.828 159.8 303.982C192.564 243.135 230.008 183.991 284.046 149.951C338.085 115.911 408.292 107.401 478.074 107.827C548.282 108.252 618.064 117.613 672.953 151.227Z" fill="#6F65FA" fill-opacity="0.7" shape-rendering="crispEdges"/>
</g>
<path d="M749.77 667.834H706.648V668.159H749.77V667.834Z" fill="#EBEBEB"/>
<path d="M595.248 671.375H583.934V671.701H595.248V671.375Z" fill="#EBEBEB"/>
<path d="M705.346 655.751H680.36V656.077H705.346V655.751Z" fill="#EBEBEB"/>
<path d="M288.536 657.939H232.303V658.264H288.536V657.939Z" fill="#EBEBEB"/>
<path d="M308.379 657.939H300.137V658.264H308.379V657.939Z" fill="#EBEBEB"/>
<path d="M457.145 663.433H335.174V663.759H457.145V663.433Z" fill="#EBEBEB"/>
<path d="M474.397 588.816H222.981C221.009 588.816 219.118 588.032 217.724 586.638C216.329 585.244 215.546 583.353 215.546 581.381V227.979C215.563 226.019 216.354 224.145 217.747 222.764C219.139 221.384 221.02 220.61 222.981 220.61H474.397C475.373 220.61 476.34 220.802 477.242 221.176C478.144 221.55 478.963 222.097 479.654 222.787C480.344 223.478 480.892 224.297 481.265 225.199C481.639 226.101 481.831 227.068 481.831 228.044V581.381C481.831 582.357 481.639 583.324 481.265 584.226C480.892 585.128 480.344 585.948 479.654 586.638C478.963 587.328 478.144 587.876 477.242 588.25C476.34 588.623 475.373 588.816 474.397 588.816ZM222.981 220.87C221.096 220.874 219.29 221.624 217.958 222.956C216.625 224.289 215.875 226.095 215.872 227.979V581.381C215.875 583.266 216.625 585.072 217.958 586.404C219.29 587.737 221.096 588.487 222.981 588.49H474.397C476.281 588.487 478.087 587.737 479.42 586.404C480.752 585.072 481.502 583.266 481.506 581.381V227.979C481.502 226.095 480.752 224.289 479.42 222.956C478.087 221.624 476.281 220.874 474.397 220.87H222.981Z" fill="#EBEBEB"/>
<path d="M756.019 588.816H504.603C502.631 588.816 500.74 588.032 499.346 586.638C497.952 585.244 497.169 583.353 497.169 581.381V227.979C497.186 226.019 497.977 224.145 499.369 222.764C500.762 221.384 502.643 220.61 504.603 220.61H756.019C757.991 220.61 759.882 221.393 761.276 222.787C762.671 224.182 763.454 226.073 763.454 228.044V581.381C763.454 583.353 762.671 585.244 761.276 586.638C759.882 588.032 757.991 588.816 756.019 588.816ZM504.603 220.87C502.719 220.874 500.913 221.624 499.58 222.956C498.248 224.289 497.498 226.095 497.494 227.979V581.381C497.498 583.266 498.248 585.072 499.58 586.404C500.913 587.737 502.719 588.487 504.603 588.49H756.019C757.904 588.487 759.71 587.737 761.042 586.404C762.375 585.072 763.125 583.266 763.128 581.381V227.979C763.125 226.095 762.375 224.289 761.042 222.956C759.71 221.624 757.904 220.874 756.019 220.87H504.603Z" fill="#EBEBEB"/>
<path d="M815 646.885H164V647.21H815V646.885Z" fill="#EBEBEB"/>
<path d="M319.368 558.804C318.274 546.227 305.436 541.527 290.216 542.855C274.996 544.183 263.186 551.045 264.254 563.622L319.368 558.804Z" fill="#F0F0F0"/>
<path d="M289.721 537.113C296.778 536.488 299.03 530.525 298.418 523.468C297.807 516.411 294.512 510.93 287.482 511.542C280.451 512.154 278.172 518.13 278.784 525.187C279.396 532.244 282.664 537.725 289.721 537.113Z" fill="#F0F0F0"/>
<path d="M606.81 290.918C606.934 292.314 606.64 293.715 605.967 294.944C605.294 296.173 604.272 297.175 603.029 297.823C601.787 298.471 600.38 298.736 598.987 298.584C597.594 298.432 596.277 297.87 595.203 296.969C594.13 296.069 593.347 294.87 592.955 293.525C592.563 292.179 592.579 290.748 593 289.412C593.422 288.075 594.23 286.894 595.324 286.017C596.417 285.14 597.745 284.608 599.141 284.486C601.011 284.324 602.869 284.91 604.306 286.116C605.744 287.322 606.645 289.049 606.81 290.918Z" fill="#F5F5F5"/>
<path d="M645.961 287.455C646.082 288.848 645.787 290.245 645.114 291.471C644.441 292.696 643.419 293.694 642.178 294.339C640.938 294.984 639.534 295.247 638.144 295.093C636.754 294.94 635.441 294.379 634.37 293.479C633.3 292.58 632.52 291.383 632.129 290.04C631.739 288.698 631.755 287.27 632.177 285.936C632.598 284.603 633.405 283.425 634.496 282.55C635.587 281.675 636.913 281.144 638.306 281.023C640.173 280.864 642.027 281.452 643.462 282.657C644.897 283.863 645.796 285.588 645.961 287.455Z" fill="#F5F5F5"/>
<path d="M685.125 284.03C685.249 285.426 684.956 286.827 684.283 288.057C683.61 289.286 682.587 290.287 681.345 290.935C680.102 291.583 678.695 291.848 677.302 291.696C675.909 291.544 674.592 290.982 673.519 290.082C672.445 289.181 671.663 287.982 671.27 286.637C670.878 285.292 670.894 283.86 671.315 282.524C671.737 281.187 672.546 280.006 673.639 279.129C674.732 278.253 676.061 277.72 677.457 277.598C679.326 277.436 681.184 278.022 682.622 279.228C684.06 280.434 684.96 282.161 685.125 284.03Z" fill="#F5F5F5"/>
<path d="M610.3 330.785C610.423 332.181 610.13 333.582 609.457 334.811C608.784 336.041 607.761 337.042 606.519 337.69C605.276 338.338 603.869 338.603 602.476 338.451C601.083 338.299 599.766 337.737 598.693 336.836C597.619 335.936 596.837 334.737 596.444 333.392C596.052 332.047 596.068 330.615 596.49 329.279C596.911 327.942 597.72 326.761 598.813 325.884C599.906 325.008 601.235 324.475 602.631 324.353C604.5 324.191 606.358 324.777 607.796 325.983C609.234 327.189 610.134 328.916 610.3 330.785Z" fill="#F5F5F5"/>
<path d="M649.451 327.374C649.572 328.767 649.277 330.165 648.603 331.39C647.93 332.615 646.908 333.614 645.668 334.258C644.427 334.903 643.023 335.166 641.633 335.013C640.243 334.86 638.93 334.298 637.86 333.398C636.789 332.499 636.009 331.302 635.619 329.96C635.228 328.617 635.245 327.189 635.666 325.856C636.087 324.522 636.894 323.344 637.985 322.469C639.076 321.595 640.402 321.063 641.795 320.942C642.72 320.862 643.652 320.964 644.537 321.244C645.423 321.524 646.244 321.975 646.955 322.572C647.666 323.17 648.252 323.901 648.68 324.725C649.109 325.549 649.37 326.449 649.451 327.374Z" fill="#F5F5F5"/>
<path d="M688.615 323.937C688.738 325.333 688.445 326.734 687.772 327.963C687.099 329.192 686.077 330.194 684.834 330.842C683.591 331.49 682.185 331.754 680.791 331.602C679.398 331.45 678.082 330.888 677.008 329.988C675.934 329.087 675.152 327.889 674.76 326.543C674.368 325.198 674.383 323.767 674.805 322.43C675.226 321.094 676.035 319.912 677.128 319.036C678.221 318.159 679.55 317.626 680.946 317.505C682.816 317.342 684.673 317.928 686.111 319.134C687.549 320.34 688.449 322.067 688.615 323.937Z" fill="#F5F5F5"/>
<path d="M613.789 370.705C613.91 372.098 613.615 373.495 612.942 374.721C612.268 375.946 611.247 376.944 610.006 377.589C608.765 378.234 607.361 378.496 605.971 378.343C604.582 378.19 603.268 377.628 602.198 376.729C601.127 375.83 600.347 374.633 599.957 373.29C599.566 371.948 599.583 370.519 600.004 369.186C600.425 367.853 601.232 366.674 602.323 365.8C603.414 364.925 604.74 364.394 606.133 364.273C607.059 364.19 607.991 364.292 608.877 364.571C609.763 364.85 610.585 365.301 611.297 365.899C612.008 366.496 612.594 367.228 613.022 368.053C613.45 368.878 613.71 369.779 613.789 370.705Z" fill="#F5F5F5"/>
<path d="M652.953 367.267C653.077 368.663 652.783 370.064 652.11 371.293C651.437 372.523 650.415 373.524 649.172 374.172C647.93 374.82 646.523 375.085 645.13 374.933C643.737 374.781 642.42 374.219 641.346 373.319C640.273 372.418 639.49 371.219 639.098 369.874C638.706 368.529 638.721 367.097 639.143 365.761C639.565 364.424 640.373 363.243 641.466 362.366C642.56 361.49 643.888 360.957 645.284 360.835C647.154 360.673 649.012 361.259 650.449 362.465C651.887 363.671 652.788 365.398 652.953 367.267Z" fill="#F5F5F5"/>
<path d="M692.104 363.83C692.228 365.226 691.934 366.627 691.261 367.856C690.588 369.085 689.566 370.087 688.323 370.735C687.081 371.383 685.674 371.647 684.281 371.496C682.888 371.344 681.571 370.782 680.497 369.881C679.424 368.981 678.641 367.782 678.249 366.437C677.857 365.091 677.873 363.66 678.294 362.323C678.716 360.987 679.524 359.806 680.618 358.929C681.711 358.052 683.039 357.52 684.435 357.398C686.305 357.236 688.163 357.822 689.6 359.028C691.038 360.234 691.939 361.961 692.104 363.83Z" fill="#F5F5F5"/>
<path d="M683.641 366.148L603.204 373.178L674.527 286.517L601.472 292.91C601.268 292.93 601.062 292.908 600.867 292.847C600.671 292.786 600.49 292.687 600.333 292.554C600.177 292.422 600.048 292.26 599.955 292.077C599.863 291.895 599.807 291.695 599.792 291.491C599.756 291.082 599.884 290.675 600.148 290.36C600.411 290.045 600.789 289.848 601.199 289.811L681.649 282.781L610.313 369.442L683.394 363.049C683.806 363.016 684.214 363.147 684.531 363.412C684.847 363.678 685.047 364.057 685.086 364.468C685.102 364.673 685.078 364.88 685.014 365.075C684.949 365.271 684.847 365.452 684.713 365.608C684.579 365.764 684.415 365.892 684.231 365.985C684.047 366.077 683.847 366.133 683.641 366.148Z" fill="#E6E6E6"/>
<path d="M684.878 520.864C684.754 520.485 684.522 520.151 684.209 519.903C683.896 519.655 683.518 519.505 683.12 519.471C679.623 519.31 676.312 517.847 673.837 515.37C670.621 512.128 668.733 507.219 668.421 501.386C668.391 500.86 668.162 500.365 667.779 500.002C667.397 499.639 666.891 499.436 666.364 499.433C666.079 499.435 665.797 499.494 665.536 499.607C665.274 499.72 665.039 499.885 664.843 500.092C664.647 500.299 664.495 500.543 664.396 500.811C664.297 501.078 664.253 501.362 664.267 501.647C664.632 508.495 666.95 514.354 670.895 518.299C673.984 521.394 678.083 523.274 682.443 523.598H682.743C683.085 523.625 683.429 523.566 683.743 523.427C684.057 523.288 684.332 523.074 684.543 522.804C684.754 522.533 684.896 522.214 684.954 521.876C685.012 521.538 684.986 521.19 684.878 520.864Z" fill="#F0F0F0"/>
<path d="M680.712 545.85C663.46 544.339 651.013 532.582 647.081 514.224C647.018 513.948 647.012 513.663 647.063 513.385C647.114 513.107 647.22 512.842 647.376 512.606C647.531 512.37 647.733 512.168 647.969 512.012C648.205 511.856 648.47 511.749 648.748 511.698C649.274 511.605 649.817 511.717 650.263 512.013C650.709 512.309 651.024 512.765 651.143 513.287C654.672 529.783 665.739 540.355 681.089 541.696C697.911 543.168 715.97 532.101 719.212 504.212C719.268 503.668 719.535 503.168 719.957 502.82C720.378 502.471 720.92 502.303 721.464 502.35C721.74 502.373 722.009 502.45 722.254 502.579C722.499 502.707 722.716 502.883 722.892 503.097C723.068 503.31 723.2 503.557 723.279 503.822C723.358 504.088 723.383 504.366 723.352 504.641C720.24 530.942 702.95 547.79 680.712 545.85Z" fill="#F0F0F0"/>
<path d="M648.162 495.931C647.886 495.908 647.617 495.83 647.372 495.702C647.127 495.574 646.91 495.398 646.734 495.184C646.558 494.97 646.426 494.724 646.347 494.458C646.268 494.193 646.243 493.915 646.274 493.639C649.373 467.339 666.663 450.478 688.888 452.431C708.418 454.137 721.503 468.719 723.548 490.684C723.569 490.96 723.535 491.237 723.448 491.499C723.361 491.762 723.222 492.005 723.04 492.213C722.859 492.421 722.637 492.592 722.389 492.714C722.141 492.836 721.871 492.907 721.595 492.923C721.051 492.949 720.519 492.762 720.111 492.402C719.703 492.043 719.45 491.539 719.407 490.996C717.519 471.206 705.84 458.095 688.537 456.584C671.78 455.113 653.643 466.167 650.414 494.03C650.391 494.303 650.315 494.568 650.189 494.811C650.063 495.055 649.891 495.271 649.682 495.447C649.473 495.624 649.231 495.757 648.97 495.84C648.709 495.923 648.434 495.954 648.162 495.931Z" fill="#F0F0F0"/>
<path d="M681.558 534.691C678.465 534.443 675.434 533.687 672.587 532.452C672.322 532.336 672.083 532.166 671.887 531.952C671.691 531.739 671.541 531.488 671.446 531.214C671.352 530.94 671.316 530.649 671.34 530.36C671.363 530.071 671.447 529.79 671.585 529.536C671.829 529.088 672.23 528.747 672.711 528.579C673.192 528.41 673.719 528.426 674.189 528.624C676.903 529.79 679.805 530.46 682.756 530.603C695.502 531.332 708.965 522.296 710.293 500.475C711.1 487.025 706.491 476.167 697.898 470.972C697.453 470.702 697.125 470.277 696.978 469.778C696.831 469.279 696.876 468.744 697.104 468.276C697.233 468.018 697.415 467.789 697.636 467.604C697.858 467.418 698.115 467.281 698.392 467.199C698.669 467.117 698.96 467.093 699.247 467.128C699.534 467.164 699.81 467.258 700.059 467.404C710.02 473.419 715.358 485.632 714.447 500.722C713.145 521.763 700.046 535.772 682.508 534.77L681.558 534.691Z" fill="#F0F0F0"/>
<path d="M663.017 521.711C662.778 521.873 662.507 521.984 662.223 522.037C661.938 522.09 661.646 522.084 661.364 522.02C661.082 521.955 660.816 521.833 660.583 521.661C660.35 521.489 660.155 521.271 660.01 521.02C656.151 513.845 654.455 505.704 655.127 497.584C656.351 477.443 668.421 463.732 684.813 463.498C685.102 463.492 685.388 463.546 685.655 463.656C685.922 463.767 686.163 463.931 686.364 464.138C686.564 464.346 686.72 464.593 686.82 464.864C686.921 465.135 686.964 465.423 686.948 465.712C686.916 466.232 686.689 466.722 686.313 467.083C685.937 467.445 685.439 467.652 684.917 467.665C672.756 467.899 660.544 477.091 659.294 497.832C658.662 505.161 660.173 512.516 663.642 519.002C663.903 519.453 663.984 519.985 663.868 520.492C663.752 521 663.448 521.444 663.017 521.737V521.711Z" fill="#F0F0F0"/>
<path d="M691.479 520.07C691.282 519.607 691.259 519.088 691.414 518.609C691.57 518.131 691.894 517.725 692.326 517.466C697.807 514.172 701.166 507.258 701.218 498.913C701.218 492.233 699.33 486.583 695.763 483.002C694.377 481.629 692.726 480.554 690.911 479.842C689.095 479.13 687.153 478.797 685.204 478.862C678.785 478.862 673.577 482.39 670.699 488.588C670.477 489.059 670.086 489.429 669.604 489.624C669.121 489.82 668.582 489.826 668.095 489.642C667.824 489.542 667.576 489.386 667.368 489.185C667.159 488.983 666.995 488.741 666.885 488.473C666.774 488.205 666.721 487.918 666.728 487.628C666.735 487.338 666.801 487.053 666.924 486.791C670.491 479.2 677.17 474.708 685.152 474.695C687.652 474.631 690.139 475.073 692.464 475.995C694.789 476.917 696.903 478.299 698.679 480.06C703.041 484.434 705.411 491.14 705.359 498.952C705.28 508.782 701.14 517.036 694.396 521.086C694.14 521.225 693.859 521.309 693.569 521.333C693.279 521.357 692.987 521.32 692.712 521.225C692.438 521.129 692.186 520.977 691.974 520.778C691.761 520.579 691.593 520.338 691.479 520.07Z" fill="#F0F0F0"/>
<path d="M676.48 504.693C676.202 504.807 675.903 504.859 675.603 504.845C675.303 504.832 675.009 504.754 674.742 504.617C674.475 504.48 674.241 504.286 674.055 504.05C673.87 503.814 673.738 503.54 673.668 503.248C673.525 502.688 673.42 502.102 673.329 501.504C672.145 493.692 676.337 486.934 683.068 485.723C684.636 485.382 686.261 485.413 687.814 485.814C689.368 486.214 690.806 486.972 692.013 488.028C692.24 488.229 692.418 488.479 692.534 488.759C692.651 489.039 692.703 489.341 692.687 489.644C692.671 489.947 692.586 490.242 692.441 490.508C692.295 490.773 692.091 491.003 691.844 491.179L691.714 491.27C691.323 491.541 690.851 491.67 690.377 491.635C689.903 491.599 689.455 491.401 689.11 491.075C688.379 490.458 687.516 490.019 686.587 489.793C685.659 489.568 684.69 489.56 683.758 489.773C678.628 490.697 676.675 496.035 677.405 500.826C677.483 501.295 677.561 501.751 677.678 502.128C677.804 502.619 677.748 503.138 677.52 503.59C677.293 504.043 676.91 504.398 676.441 504.589L676.48 504.693Z" fill="#F0F0F0"/>
<path d="M683.368 512.714C683.039 512.682 682.725 512.566 682.453 512.379C682.182 512.191 681.963 511.937 681.817 511.641C681.671 511.346 681.603 511.017 681.619 510.688C681.635 510.358 681.735 510.038 681.91 509.758L682.092 509.472C682.279 509.173 682.544 508.932 682.858 508.773C683.173 508.615 683.525 508.546 683.876 508.573C684.529 508.611 685.184 508.571 685.829 508.456C690.307 507.649 692.339 503.483 692.339 499.238C692.326 498.728 692.498 498.231 692.824 497.838C693.149 497.446 693.606 497.184 694.109 497.103C694.398 497.059 694.693 497.076 694.975 497.153C695.257 497.23 695.519 497.366 695.745 497.552C695.971 497.737 696.156 497.968 696.287 498.229C696.418 498.491 696.492 498.777 696.505 499.069C696.622 505.865 692.599 511.477 686.571 512.558C685.515 512.753 684.438 512.805 683.368 512.714Z" fill="#F0F0F0"/>
<path d="M684.292 505.019C683.241 504.93 682.243 504.515 681.44 503.831C680.637 503.147 680.068 502.228 679.813 501.204C679.74 500.915 679.736 500.613 679.803 500.322C679.87 500.032 680.005 499.761 680.197 499.533C680.39 499.306 680.633 499.127 680.909 499.012C681.184 498.897 681.482 498.85 681.779 498.873H682.261C682.626 498.912 682.971 499.055 683.255 499.286C683.54 499.517 683.751 499.826 683.863 500.175C683.908 500.357 684.009 500.52 684.151 500.641C684.294 500.762 684.47 500.836 684.657 500.852C685.659 500.944 685.829 499.55 685.855 499.212C685.915 498.705 685.82 498.192 685.581 497.741C685.222 497.306 685.036 496.754 685.06 496.191C685.093 495.778 685.249 495.383 685.508 495.059C685.766 494.734 686.116 494.494 686.512 494.37C686.908 494.245 687.332 494.242 687.73 494.36C688.128 494.478 688.481 494.712 688.745 495.033C689.761 496.316 690.229 497.949 690.047 499.577C689.709 503.001 687.3 505.279 684.292 505.019Z" fill="#F0F0F0"/>
<path d="M645.128 458.42C644.856 458.397 644.591 458.321 644.348 458.195C644.106 458.069 643.891 457.897 643.715 457.687C643.54 457.478 643.407 457.236 643.326 456.975C643.244 456.714 643.215 456.44 643.24 456.168L644.816 438.109L662.874 439.698C663.147 439.72 663.412 439.797 663.654 439.923C663.897 440.049 664.112 440.221 664.287 440.431C664.463 440.64 664.595 440.882 664.677 441.143C664.758 441.404 664.787 441.678 664.762 441.95C664.739 442.223 664.663 442.488 664.537 442.731C664.411 442.975 664.239 443.191 664.03 443.367C663.821 443.544 663.579 443.677 663.318 443.76C663.057 443.843 662.783 443.874 662.51 443.851L648.604 442.627L647.394 456.532C647.369 456.805 647.291 457.07 647.164 457.313C647.037 457.556 646.863 457.771 646.652 457.946C646.442 458.122 646.199 458.254 645.937 458.335C645.676 458.416 645.401 458.445 645.128 458.42Z" fill="#F0F0F0"/>
<path d="M730.969 465.933C730.697 465.91 730.432 465.833 730.189 465.708C729.947 465.582 729.731 465.409 729.556 465.2C729.38 464.99 729.248 464.748 729.167 464.487C729.085 464.227 729.056 463.952 729.081 463.68L730.292 449.775L716.387 448.564C716.114 448.54 715.848 448.462 715.606 448.334C715.363 448.207 715.148 448.033 714.973 447.823C714.797 447.612 714.665 447.37 714.584 447.108C714.503 446.846 714.474 446.571 714.499 446.299C714.522 446.026 714.598 445.761 714.724 445.519C714.85 445.276 715.022 445.061 715.232 444.886C715.441 444.71 715.683 444.578 715.944 444.496C716.205 444.415 716.479 444.386 716.751 444.411L734.81 445.986L733.234 464.084C733.175 464.628 732.904 465.127 732.481 465.473C732.057 465.819 731.514 465.984 730.969 465.933Z" fill="#F0F0F0"/>
<path d="M724.576 563.036L706.517 561.461C706.244 561.436 705.979 561.358 705.737 561.231C705.494 561.104 705.279 560.93 705.103 560.719C704.928 560.509 704.796 560.266 704.715 560.004C704.633 559.743 704.604 559.468 704.629 559.195C704.652 558.923 704.729 558.658 704.855 558.415C704.981 558.173 705.153 557.958 705.363 557.782C705.572 557.607 705.814 557.474 706.075 557.393C706.335 557.311 706.61 557.282 706.882 557.307L720.787 558.518L721.998 544.626C722.021 544.352 722.098 544.085 722.224 543.841C722.351 543.597 722.524 543.38 722.735 543.204C722.946 543.027 723.189 542.894 723.451 542.811C723.714 542.729 723.99 542.7 724.264 542.725C724.536 542.748 724.801 542.824 725.043 542.95C725.286 543.076 725.501 543.249 725.677 543.458C725.852 543.667 725.984 543.909 726.066 544.17C726.147 544.431 726.176 544.705 726.151 544.977L724.576 563.036Z" fill="#F0F0F0"/>
<path d="M652.641 556.708L634.582 555.12L636.157 537.074C636.21 536.524 636.477 536.016 636.901 535.66C637.325 535.305 637.871 535.13 638.423 535.173C638.696 535.198 638.961 535.276 639.203 535.403C639.446 535.53 639.661 535.704 639.837 535.914C640.012 536.125 640.144 536.368 640.225 536.629C640.307 536.891 640.336 537.166 640.311 537.439L639.1 551.318L652.992 552.542C653.265 552.565 653.53 552.641 653.774 552.767C654.017 552.893 654.233 553.065 654.409 553.274C654.586 553.483 654.72 553.725 654.803 553.986C654.885 554.247 654.916 554.522 654.893 554.794C654.847 555.346 654.584 555.857 654.162 556.216C653.74 556.575 653.193 556.752 652.641 556.708Z" fill="#F0F0F0"/>
<path d="M261.298 517.635C260.959 517.661 260.623 517.552 260.363 517.333C260.103 517.114 259.938 516.802 259.905 516.463L258.942 505.37L270.035 504.394C270.374 504.368 270.71 504.477 270.97 504.696C271.231 504.915 271.395 505.227 271.428 505.566C271.45 505.903 271.34 506.235 271.121 506.493C270.903 506.75 270.592 506.913 270.256 506.946L261.715 507.701L262.457 516.242C262.483 516.579 262.376 516.913 262.16 517.173C261.944 517.433 261.635 517.599 261.298 517.635Z" fill="#E0E0E0"/>
<path d="M314.082 513.013C313.744 513.039 313.41 512.932 313.15 512.716C312.89 512.5 312.725 512.191 312.688 511.854L311.946 503.3L303.392 504.055C303.053 504.081 302.717 503.972 302.457 503.753C302.196 503.534 302.032 503.222 301.999 502.884C301.974 502.544 302.082 502.209 302.301 501.948C302.52 501.688 302.832 501.524 303.171 501.49L314.264 500.527L315.24 511.62C315.266 511.957 315.159 512.291 314.943 512.551C314.727 512.811 314.418 512.977 314.082 513.013Z" fill="#E0E0E0"/>
<path d="M319.55 560.81L308.444 561.786C308.105 561.812 307.769 561.703 307.508 561.484C307.248 561.265 307.084 560.953 307.051 560.614C307.025 560.275 307.134 559.939 307.353 559.679C307.572 559.419 307.884 559.254 308.223 559.221L316.764 558.479L316.022 549.938C315.996 549.601 316.103 549.267 316.319 549.007C316.535 548.747 316.844 548.581 317.18 548.545C317.518 548.519 317.852 548.626 318.112 548.842C318.372 549.058 318.537 549.367 318.573 549.704L319.55 560.81Z" fill="#E0E0E0"/>
<path d="M275.308 564.677L264.254 565.64L263.277 554.534C263.256 554.197 263.366 553.864 263.584 553.607C263.803 553.349 264.113 553.187 264.449 553.154C264.784 553.132 265.115 553.24 265.372 553.456C265.629 553.672 265.793 553.979 265.829 554.313L266.585 562.867L275.126 562.112C275.465 562.086 275.801 562.195 276.061 562.414C276.321 562.633 276.486 562.945 276.519 563.283C276.531 563.454 276.51 563.626 276.455 563.789C276.401 563.952 276.315 564.102 276.203 564.232C276.09 564.361 275.953 564.467 275.8 564.543C275.646 564.62 275.479 564.665 275.308 564.677Z" fill="#E0E0E0"/>
<path d="M313.183 332.582L270.764 336.228L269.892 326.293C269.828 321.552 271.559 316.962 274.738 313.444C277.918 309.926 282.309 307.74 287.033 307.325C291.756 306.91 296.462 308.296 300.206 311.206C303.95 314.115 306.456 318.333 307.22 323.012L307.715 328.793L313.847 328.259L313.339 322.478C313.054 319.218 312.129 316.045 310.617 313.142C309.106 310.239 307.037 307.662 304.53 305.558C302.022 303.455 299.125 301.866 296.003 300.882C292.881 299.898 289.597 299.538 286.336 299.824C279.751 300.4 273.665 303.569 269.416 308.633C267.312 311.141 265.723 314.038 264.739 317.16C263.755 320.282 263.396 323.567 263.681 326.827L264.553 336.827C262.138 337.299 259.983 338.648 258.502 340.615C257.022 342.581 256.32 345.025 256.533 347.477L259.567 382.162C259.675 383.471 260.041 384.746 260.643 385.913C261.245 387.081 262.072 388.118 263.076 388.965C264.081 389.811 265.242 390.452 266.494 390.848C267.747 391.245 269.065 391.39 270.373 391.276L317.935 387.123C319.245 387.015 320.519 386.649 321.687 386.047C322.854 385.444 323.891 384.617 324.738 383.613C325.585 382.609 326.225 381.448 326.622 380.195C327.018 378.943 327.164 377.625 327.049 376.316L324.016 341.631C323.9 340.325 323.527 339.055 322.92 337.893C322.312 336.732 321.482 335.701 320.476 334.861C319.469 334.02 318.307 333.386 317.056 332.995C315.805 332.604 314.489 332.464 313.183 332.582ZM295.137 359.312L296.179 371.251C296.249 371.732 296.22 372.222 296.095 372.691C295.969 373.16 295.749 373.598 295.447 373.979C295.146 374.36 294.77 374.675 294.343 374.906C293.916 375.137 293.446 375.277 292.962 375.32C292.478 375.363 291.991 375.306 291.53 375.154C291.069 375.001 290.644 374.757 290.28 374.434C289.917 374.112 289.624 373.719 289.418 373.279C289.212 372.839 289.098 372.362 289.083 371.876L288.042 359.924C286.967 359.264 286.129 358.283 285.645 357.119C285.161 355.955 285.057 354.668 285.347 353.441C285.638 352.215 286.308 351.111 287.262 350.287C288.216 349.463 289.405 348.962 290.661 348.853C291.917 348.745 293.175 349.036 294.256 349.684C295.337 350.332 296.186 351.305 296.682 352.464C297.178 353.623 297.296 354.908 297.018 356.138C296.741 357.368 296.083 358.478 295.137 359.312Z" fill="#EBEBEB"/>
<path d="M385.913 352.62L381.629 345.602C379.47 345.909 377.278 345.909 375.119 345.602L370.823 352.594L370.002 352.372C367.218 351.639 364.546 350.531 362.06 349.078L361.331 348.662L363.141 341.058C363.176 340.91 363.24 340.771 363.329 340.649C363.418 340.526 363.531 340.423 363.661 340.344C363.79 340.265 363.934 340.213 364.084 340.19C364.234 340.168 364.387 340.175 364.534 340.212C364.829 340.283 365.084 340.468 365.243 340.727C365.401 340.985 365.451 341.297 365.38 341.592L363.948 347.516C365.798 348.524 367.749 349.336 369.768 349.938L373.961 343.089L374.729 343.219C377.161 343.61 379.64 343.61 382.072 343.219L382.827 343.089L387.02 349.938C389.04 349.34 390.991 348.528 392.84 347.516L390.978 339.704L391.603 339.248C393.299 338.025 394.819 336.575 396.121 334.939C396.301 334.703 396.567 334.547 396.861 334.503C397.155 334.459 397.454 334.531 397.696 334.704C397.823 334.792 397.93 334.905 398.011 335.036C398.093 335.166 398.147 335.312 398.17 335.465C398.193 335.617 398.185 335.772 398.146 335.922C398.107 336.071 398.038 336.21 397.943 336.332C396.664 337.947 395.19 339.399 393.556 340.654L395.47 348.636L394.727 349.052C392.245 350.502 389.578 351.61 386.798 352.346L385.913 352.62ZM359.586 337.334C359.235 336.931 358.883 336.501 358.545 336.032L350.564 337.946L350.134 337.217C348.692 334.726 347.585 332.055 346.84 329.275L346.632 328.455L353.623 324.158C353.316 321.999 353.316 319.807 353.623 317.648L346.632 313.364L346.84 312.531C347.585 309.755 348.692 307.089 350.134 304.602L350.564 303.86L358.545 305.774C359.877 304.03 361.436 302.471 363.18 301.139L361.735 295.097C361.664 294.802 361.714 294.491 361.872 294.232C362.031 293.973 362.286 293.788 362.581 293.717C362.726 293.682 362.877 293.677 363.025 293.701C363.172 293.724 363.314 293.777 363.441 293.856C363.568 293.934 363.678 294.037 363.765 294.159C363.852 294.28 363.914 294.418 363.948 294.564L365.758 302.089L365.133 302.532C363.127 303.975 361.368 305.734 359.925 307.74L359.469 308.365L351.657 306.503C350.645 308.351 349.833 310.302 349.236 312.323L356.071 316.515L355.954 317.27C355.519 319.699 355.519 322.185 355.954 324.614L356.071 325.382L349.236 329.574C349.835 331.59 350.647 333.537 351.657 335.381L359.469 333.519L359.925 334.144C360.33 334.735 360.764 335.304 361.227 335.85C361.428 336.061 361.539 336.34 361.539 336.631C361.539 336.922 361.428 337.202 361.227 337.412C361.116 337.519 360.985 337.601 360.841 337.655C360.697 337.709 360.543 337.733 360.39 337.725C360.236 337.718 360.086 337.68 359.948 337.612C359.81 337.545 359.687 337.451 359.586 337.334ZM406.12 337.972L403.177 337.269C402.882 337.198 402.627 337.013 402.469 336.754C402.31 336.495 402.261 336.184 402.331 335.889C402.402 335.594 402.587 335.339 402.846 335.18C403.105 335.022 403.416 334.972 403.711 335.043L405.013 335.342C406.019 333.497 406.827 331.551 407.422 329.535L400.586 325.343L400.717 324.575C401.151 322.146 401.151 319.66 400.717 317.231L400.586 316.476L407.422 312.284C406.829 310.263 406.022 308.312 405.013 306.464L397.201 308.326L396.759 307.701C395.312 305.698 393.554 303.939 391.551 302.493L390.926 302.05L392.787 294.238C390.939 293.23 388.988 292.422 386.968 291.829L382.736 298.73L381.981 298.6C379.549 298.209 377.07 298.209 374.638 298.6L373.869 298.73L369.716 291.855L368.935 292.09C368.657 292.181 368.354 292.16 368.091 292.032C367.828 291.903 367.626 291.676 367.529 291.4C367.475 291.257 367.45 291.105 367.456 290.953C367.462 290.8 367.498 290.651 367.562 290.513C367.626 290.374 367.717 290.25 367.83 290.148C367.943 290.045 368.075 289.966 368.219 289.915C368.792 289.733 369.377 289.564 369.95 289.408L370.771 289.186L375.067 296.191C377.225 295.87 379.419 295.87 381.577 296.191L385.861 289.186L386.694 289.408C389.471 290.149 392.138 291.257 394.623 292.702L395.365 293.131L393.451 301.113C395.198 302.442 396.757 304.001 398.087 305.748L406.068 303.834L406.498 304.576C407.944 307.06 409.052 309.727 409.792 312.505L410.013 313.338L403.008 317.622C403.333 319.78 403.333 321.974 403.008 324.132L410.013 328.429L409.792 329.249C409.052 332.031 407.945 334.702 406.498 337.191L406.12 337.972ZM378.023 332.061C375.186 331.949 372.495 330.771 370.488 328.764C368.48 326.756 367.303 324.066 367.19 321.229C367.113 318.438 368.083 315.72 369.909 313.609C371.736 311.498 374.287 310.147 377.059 309.823C377.222 309.803 377.387 309.817 377.544 309.865C377.7 309.914 377.845 309.995 377.968 310.103C378.091 310.211 378.19 310.344 378.258 310.494C378.325 310.643 378.361 310.805 378.361 310.969C378.36 311.246 378.257 311.513 378.072 311.719C377.888 311.925 377.634 312.057 377.359 312.088C375.429 312.308 373.626 313.156 372.224 314.5C370.823 315.845 369.902 317.612 369.603 319.531C369.303 321.449 369.642 323.413 370.567 325.121C371.492 326.828 372.952 328.185 374.722 328.982C376.493 329.78 378.476 329.974 380.368 329.535C382.259 329.096 383.955 328.048 385.193 326.553C386.431 325.057 387.145 323.196 387.223 321.256C387.301 319.315 386.74 317.403 385.626 315.812C385.466 315.587 385.395 315.309 385.429 315.035C385.463 314.76 385.598 314.508 385.809 314.328C385.93 314.22 386.073 314.139 386.228 314.091C386.384 314.042 386.547 314.028 386.709 314.047C386.87 314.067 387.025 314.121 387.164 314.205C387.303 314.289 387.422 314.402 387.514 314.536C388.699 316.231 389.388 318.221 389.506 320.285C389.625 322.349 389.166 324.405 388.183 326.223C387.199 328.042 385.729 329.551 383.937 330.582C382.145 331.613 380.102 332.125 378.036 332.061H378.023Z" fill="#F0F0F0"/>
<path d="M305.02 447.926L302.246 443.408C300.844 443.617 299.418 443.617 298.015 443.408L295.242 447.926L294.708 447.783C292.91 447.309 291.185 446.595 289.578 445.661L289.109 445.387L290.281 440.466C290.327 440.277 290.446 440.113 290.612 440.011C290.777 439.909 290.977 439.876 291.166 439.919C291.261 439.942 291.351 439.983 291.43 440.041C291.509 440.098 291.576 440.171 291.626 440.254C291.677 440.338 291.711 440.431 291.726 440.527C291.741 440.624 291.736 440.722 291.713 440.817L290.802 444.645C291.996 445.3 293.258 445.823 294.565 446.208L297.273 441.794L297.754 441.872C299.328 442.132 300.933 442.132 302.507 441.872L302.989 441.794L305.71 446.208C307.009 445.815 308.266 445.292 309.459 444.645L308.262 439.619L308.665 439.32C309.76 438.533 310.741 437.6 311.582 436.547C311.696 436.392 311.867 436.289 312.057 436.259C312.248 436.23 312.442 436.277 312.597 436.39C312.677 436.447 312.745 436.52 312.797 436.603C312.849 436.686 312.884 436.779 312.899 436.876C312.915 436.973 312.911 437.072 312.889 437.167C312.866 437.263 312.824 437.353 312.767 437.432C311.937 438.476 310.984 439.416 309.928 440.231L311.23 445.439L310.748 445.713C309.142 446.649 307.417 447.363 305.619 447.835L305.02 447.926ZM288.016 438.044L287.338 437.224L282.13 438.448L281.857 437.979C280.94 436.365 280.244 434.635 279.787 432.836L279.644 432.302L284.162 429.529C283.953 428.126 283.953 426.7 284.162 425.297L279.644 422.524L279.787 421.99C280.259 420.192 280.973 418.466 281.909 416.86L282.183 416.379L287.391 417.681C288.228 416.541 289.203 415.509 290.294 414.608L289.37 410.702C289.346 410.608 289.342 410.51 289.357 410.414C289.372 410.319 289.406 410.227 289.457 410.145C289.508 410.062 289.575 409.991 289.654 409.934C289.733 409.878 289.822 409.838 289.916 409.817C290.106 409.773 290.305 409.807 290.471 409.909C290.637 410.011 290.755 410.174 290.802 410.363L291.974 415.22L291.557 415.519C290.267 416.445 289.136 417.575 288.211 418.866L287.911 419.269L282.886 418.071C282.239 419.265 281.716 420.521 281.323 421.821L285.737 424.529L285.659 425.024C285.525 425.807 285.455 426.599 285.451 427.394C285.455 428.192 285.525 428.989 285.659 429.776L285.737 430.258L281.323 432.966C281.713 434.271 282.237 435.532 282.886 436.729L287.911 435.518L288.211 435.922C288.48 436.307 288.771 436.677 289.083 437.028C289.211 437.164 289.283 437.343 289.283 437.53C289.283 437.716 289.211 437.896 289.083 438.031C289.016 438.105 288.934 438.165 288.843 438.206C288.751 438.247 288.652 438.269 288.552 438.27C288.452 438.271 288.353 438.252 288.26 438.213C288.168 438.174 288.085 438.117 288.016 438.044ZM318.079 438.448L316.178 438.005C316.083 437.982 315.993 437.941 315.914 437.883C315.835 437.825 315.769 437.753 315.718 437.669C315.667 437.586 315.633 437.493 315.618 437.397C315.603 437.3 315.608 437.201 315.631 437.107C315.652 437.012 315.692 436.923 315.749 436.844C315.805 436.765 315.876 436.698 315.959 436.647C316.041 436.596 316.133 436.562 316.229 436.547C316.324 436.532 316.422 436.537 316.516 436.56L317.337 436.755C317.991 435.56 318.515 434.299 318.899 432.992L314.485 430.284L314.563 429.802C314.698 429.015 314.767 428.218 314.772 427.42C314.767 426.625 314.698 425.833 314.563 425.05L314.485 424.555L318.899 421.847C318.512 420.545 317.989 419.288 317.337 418.097L312.311 419.295L312.011 418.892C311.086 417.601 309.956 416.471 308.665 415.545L308.262 415.246L309.459 410.22C308.268 409.568 307.011 409.045 305.71 408.658L302.989 413.072L302.507 412.994C300.933 412.733 299.328 412.733 297.754 412.994L297.273 413.072L294.565 408.658L294.057 408.814C293.875 408.872 293.679 408.857 293.508 408.772C293.338 408.687 293.208 408.538 293.145 408.358C293.11 408.267 293.094 408.17 293.097 408.072C293.101 407.974 293.124 407.878 293.165 407.789C293.206 407.701 293.265 407.621 293.338 407.556C293.41 407.49 293.496 407.44 293.588 407.408L294.708 407.069L295.242 406.939L298.015 411.457C299.418 411.249 300.844 411.249 302.246 411.457L305.02 406.939L305.553 407.069C307.35 407.552 309.075 408.27 310.683 409.205L311.165 409.478L309.863 414.686C310.984 415.553 311.99 416.56 312.858 417.681L318.066 416.379L318.339 416.86C319.275 418.466 319.989 420.192 320.461 421.99L320.605 422.524L316.087 425.297C316.295 426.7 316.295 428.126 316.087 429.529L320.605 432.302L320.461 432.836C319.987 434.633 319.273 436.359 318.339 437.966L318.079 438.448ZM299.929 434.633C298.16 434.511 296.497 433.743 295.259 432.473C294.021 431.204 293.293 429.523 293.216 427.751C293.139 425.979 293.717 424.241 294.84 422.869C295.963 421.496 297.552 420.586 299.304 420.311C299.408 420.3 299.514 420.311 299.614 420.343C299.714 420.375 299.806 420.428 299.884 420.498C299.963 420.568 300.026 420.653 300.069 420.749C300.113 420.844 300.136 420.948 300.137 421.053C300.138 421.233 300.072 421.408 299.952 421.543C299.832 421.677 299.666 421.763 299.486 421.782C298.388 421.908 297.35 422.348 296.496 423.051C295.643 423.753 295.011 424.688 294.677 425.741C294.342 426.795 294.32 427.923 294.612 428.989C294.905 430.055 295.499 431.013 296.324 431.749C297.149 432.485 298.169 432.966 299.262 433.135C300.354 433.304 301.472 433.153 302.481 432.701C303.489 432.249 304.346 431.515 304.946 430.587C305.547 429.659 305.866 428.577 305.866 427.472C305.868 426.296 305.504 425.149 304.824 424.191C304.725 424.043 304.682 423.864 304.704 423.687C304.725 423.51 304.81 423.347 304.942 423.227C305.02 423.157 305.112 423.104 305.213 423.072C305.313 423.04 305.42 423.03 305.524 423.042C305.629 423.054 305.73 423.089 305.82 423.143C305.911 423.198 305.988 423.271 306.048 423.357C306.81 424.453 307.252 425.738 307.327 427.07C307.402 428.402 307.106 429.729 306.472 430.903C305.838 432.077 304.89 433.052 303.735 433.719C302.58 434.387 301.262 434.721 299.929 434.685V434.633Z" fill="#E6E6E6"/>
<path d="M489.5 704.967C628.921 704.967 741.945 698.368 741.945 690.228C741.945 682.088 628.921 675.49 489.5 675.49C350.079 675.49 237.055 682.088 237.055 690.228C237.055 698.368 350.079 704.967 489.5 704.967Z" fill="#F5F5F5"/>
<path d="M637.212 338.871H594.819L564.873 681.622H607.266C613.216 681.507 618.918 679.219 623.298 675.19C627.677 671.161 630.431 665.668 631.04 659.749L657.198 360.731C657.501 357.945 657.208 355.126 656.337 352.463C655.466 349.799 654.038 347.351 652.147 345.283C650.256 343.214 647.946 341.573 645.37 340.467C642.795 339.361 640.014 338.817 637.212 338.871Z" fill="#407BFF"/>
<path d="M628.567 338.871H485.086C479.136 338.982 473.432 341.267 469.05 345.294C464.668 349.321 461.911 354.812 461.299 360.731L435.141 659.749C434.84 662.533 435.134 665.349 436.004 668.011C436.875 670.672 438.301 673.118 440.188 675.187C442.076 677.256 444.381 678.899 446.953 680.009C449.524 681.118 452.301 681.668 455.101 681.622H598.568C604.511 681.495 610.202 679.202 614.573 675.174C618.944 671.146 621.693 665.661 622.304 659.749L648.461 360.731C648.764 357.953 648.473 355.142 647.607 352.485C646.742 349.828 645.322 347.385 643.44 345.318C641.559 343.251 639.261 341.607 636.696 340.496C634.132 339.384 631.361 338.83 628.567 338.871Z" fill="#407BFF"/>
<path opacity="0.3" d="M628.567 338.871H485.086C479.136 338.982 473.432 341.267 469.05 345.294C464.668 349.321 461.911 354.812 461.299 360.731L435.141 659.749C434.84 662.533 435.134 665.349 436.004 668.011C436.875 670.672 438.301 673.118 440.188 675.187C442.076 677.256 444.381 678.899 446.953 680.009C449.524 681.118 452.301 681.668 455.101 681.622H598.568C604.511 681.495 610.202 679.202 614.573 675.174C618.944 671.146 621.693 665.661 622.304 659.749L648.461 360.731C648.764 357.953 648.473 355.142 647.607 352.485C646.742 349.828 645.322 347.385 643.44 345.318C641.559 343.251 639.261 341.607 636.696 340.496C634.132 339.384 631.361 338.83 628.567 338.871Z" fill="white"/>
<path opacity="0.4" d="M627.955 345.875H590.119C588.991 345.885 587.891 346.232 586.963 346.873C586.034 347.513 585.32 348.418 584.911 349.469C583.418 353.331 580.809 356.66 577.417 359.032C574.024 361.405 570.001 362.712 565.862 362.788H543.546C539.648 362.867 535.844 361.584 532.79 359.16C529.736 356.736 527.623 353.322 526.815 349.508C526.6 348.476 526.03 347.552 525.205 346.896C524.38 346.239 523.351 345.892 522.297 345.915H484.474C480.43 345.986 476.553 347.537 473.575 350.275C470.598 353.012 468.727 356.746 468.316 360.77L442.146 659.788C441.937 661.681 442.133 663.597 442.723 665.408C443.313 667.22 444.282 668.884 445.566 670.292C446.85 671.699 448.419 672.816 450.169 673.569C451.918 674.321 453.809 674.692 455.713 674.657H599.193C603.239 674.582 607.117 673.028 610.094 670.288C613.071 667.548 614.941 663.813 615.351 659.788L641.508 360.77C641.722 358.876 641.529 356.958 640.941 355.145C640.354 353.331 639.387 351.664 638.104 350.254C636.821 348.844 635.252 347.724 633.502 346.969C631.752 346.214 629.861 345.841 627.955 345.875Z" fill="white"/>
<path d="M592.202 508.352H491.792C491.101 508.363 490.417 508.228 489.783 507.955C489.149 507.681 488.581 507.276 488.115 506.767C487.65 506.257 487.298 505.654 487.084 504.998C486.869 504.342 486.796 503.648 486.87 502.962L487.378 497.207C487.527 495.748 488.205 494.394 489.285 493.401C490.364 492.407 491.77 491.844 493.237 491.817H593.66C594.35 491.805 595.035 491.941 595.669 492.214C596.302 492.487 596.871 492.892 597.336 493.402C597.802 493.912 598.153 494.515 598.368 495.171C598.583 495.827 598.656 496.521 598.582 497.207L598.087 502.962C597.934 504.424 597.251 505.78 596.167 506.773C595.083 507.767 593.672 508.328 592.202 508.352Z" fill="white"/>
<path d="M590.04 533.09H489.617C488.928 533.102 488.243 532.966 487.61 532.693C486.977 532.419 486.409 532.014 485.945 531.504C485.48 530.994 485.13 530.391 484.917 529.735C484.704 529.079 484.633 528.385 484.709 527.7L485.203 521.945C485.355 520.487 486.035 519.134 487.114 518.142C488.192 517.149 489.597 516.585 491.062 516.555H591.486C592.176 516.543 592.86 516.679 593.494 516.952C594.128 517.225 594.696 517.63 595.162 518.14C595.627 518.65 595.979 519.253 596.194 519.909C596.408 520.565 596.481 521.259 596.407 521.945L595.899 527.7C595.747 529.158 595.068 530.51 593.989 531.503C592.91 532.495 591.506 533.06 590.04 533.09Z" fill="white"/>
<path opacity="0.1" d="M561.696 351.474C561.53 353.094 560.776 354.598 559.576 355.699C558.377 356.801 556.814 357.424 555.186 357.45C554.421 357.464 553.661 357.315 552.958 357.012C552.255 356.709 551.624 356.26 551.108 355.695C550.592 355.13 550.202 354.461 549.964 353.733C549.727 353.005 549.647 352.235 549.731 351.474C549.896 349.854 550.65 348.35 551.85 347.249C553.05 346.148 554.612 345.525 556.241 345.498C557.006 345.484 557.766 345.634 558.469 345.936C559.172 346.239 559.803 346.688 560.319 347.253C560.835 347.819 561.225 348.487 561.462 349.215C561.7 349.943 561.779 350.713 561.696 351.474Z" fill="black"/>
<path opacity="0.1" d="M558.988 351.474C558.896 352.359 558.484 353.179 557.829 353.781C557.174 354.383 556.322 354.725 555.433 354.742C555.015 354.75 554.599 354.669 554.214 354.504C553.83 354.338 553.485 354.093 553.202 353.783C552.92 353.474 552.707 353.108 552.578 352.71C552.448 352.312 552.405 351.89 552.452 351.474C552.541 350.588 552.952 349.766 553.607 349.164C554.263 348.562 555.116 348.221 556.006 348.206C556.424 348.2 556.839 348.283 557.223 348.449C557.606 348.615 557.95 348.86 558.232 349.169C558.514 349.478 558.727 349.843 558.857 350.241C558.988 350.638 559.032 351.058 558.988 351.474Z" fill="black"/>
<g opacity="0.8">
<path d="M610.287 361.447C610.062 361.451 609.839 361.406 609.633 361.317C609.427 361.227 609.242 361.095 609.09 360.929C608.939 360.763 608.825 360.566 608.755 360.353C608.685 360.139 608.661 359.913 608.685 359.69L608.972 356.487C609.019 356.014 609.239 355.574 609.59 355.253C609.94 354.931 610.397 354.749 610.872 354.742C611.096 354.739 611.318 354.784 611.523 354.872C611.728 354.961 611.912 355.092 612.063 355.256C612.215 355.421 612.329 355.616 612.4 355.828C612.471 356.04 612.496 356.264 612.474 356.487L612.187 359.69C612.14 360.164 611.92 360.605 611.57 360.929C611.22 361.253 610.763 361.437 610.287 361.447Z" fill="white"/>
<path d="M624.296 361.447C624.071 361.451 623.849 361.406 623.642 361.317C623.436 361.227 623.251 361.095 623.1 360.929C622.948 360.763 622.834 360.566 622.764 360.353C622.694 360.139 622.671 359.913 622.695 359.69L623.359 352.177C623.406 351.704 623.627 351.265 623.977 350.943C624.327 350.621 624.784 350.44 625.26 350.433C625.483 350.43 625.705 350.474 625.91 350.562C626.115 350.651 626.299 350.782 626.45 350.947C626.602 351.111 626.716 351.306 626.787 351.518C626.858 351.73 626.883 351.955 626.861 352.177L626.197 359.69C626.149 360.164 625.93 360.605 625.58 360.929C625.229 361.253 624.773 361.437 624.296 361.447Z" fill="white"/>
<path d="M617.291 361.447C617.067 361.45 616.844 361.406 616.638 361.317C616.431 361.227 616.246 361.095 616.095 360.929C615.944 360.763 615.829 360.566 615.759 360.353C615.69 360.139 615.666 359.913 615.69 359.69L616.159 354.338C616.206 353.862 616.428 353.419 616.781 353.095C617.134 352.771 617.593 352.588 618.073 352.581C618.297 352.577 618.519 352.622 618.725 352.711C618.93 352.801 619.115 352.933 619.265 353.1C619.415 353.266 619.528 353.463 619.597 353.676C619.665 353.89 619.687 354.116 619.661 354.338L619.192 359.69C619.145 360.164 618.925 360.605 618.575 360.929C618.225 361.253 617.768 361.437 617.291 361.447Z" fill="white"/>
</g>
<g opacity="0.8">
<path d="M490.333 361.447H481.532C481.405 361.45 481.279 361.426 481.163 361.376C481.046 361.326 480.942 361.251 480.857 361.157C480.772 361.064 480.708 360.953 480.669 360.832C480.631 360.711 480.618 360.584 480.633 360.458L481.037 355.732C481.065 355.463 481.191 355.215 481.39 355.032C481.589 354.85 481.848 354.747 482.118 354.742H490.919C491.046 354.739 491.172 354.764 491.288 354.814C491.404 354.864 491.509 354.938 491.594 355.032C491.679 355.126 491.743 355.237 491.782 355.358C491.82 355.478 491.832 355.606 491.818 355.732L491.401 360.458C491.378 360.726 491.256 360.976 491.059 361.159C490.861 361.342 490.602 361.445 490.333 361.447Z" fill="white"/>
<path d="M494.409 360.158C494.281 360.161 494.155 360.136 494.038 360.086C493.921 360.037 493.816 359.962 493.73 359.869C493.644 359.775 493.579 359.665 493.538 359.544C493.498 359.423 493.484 359.295 493.497 359.169L493.692 357.008C493.718 356.738 493.843 356.488 494.043 356.305C494.242 356.122 494.502 356.02 494.773 356.018C494.9 356.015 495.026 356.04 495.142 356.09C495.258 356.14 495.363 356.214 495.448 356.308C495.533 356.402 495.597 356.513 495.636 356.634C495.674 356.754 495.686 356.882 495.671 357.008L495.489 359.169C495.461 359.437 495.335 359.686 495.136 359.868C494.937 360.05 494.678 360.154 494.409 360.158Z" fill="white"/>
</g>
<path d="M575.657 470.504C593.177 453.732 594.924 427.124 579.559 411.073C564.194 395.023 537.535 395.608 520.015 412.38C502.494 429.152 500.747 455.76 516.112 471.811C531.477 487.861 558.136 487.276 575.657 470.504Z" fill="white"/>
<path d="M547.986 439.841C536.945 439.841 527.61 444.046 526.815 453.173L525.93 463.316H565.94L566.826 453.173C567.62 444.046 559.04 439.841 547.986 439.841Z" fill="#407BFF"/>
<path d="M548.35 435.661C553.48 435.661 555.85 431.508 556.293 426.378C556.735 421.248 555.108 417.095 549.978 417.095C544.848 417.095 542.491 421.261 542.036 426.378C541.58 431.495 543.221 435.661 548.35 435.661Z" fill="#407BFF"/>
<path d="M587.619 499.733C584.898 499.733 582.593 500.774 582.411 503.027L582.189 505.54H592.072L592.293 503.027C592.475 500.774 590.353 499.733 587.619 499.733Z" fill="#407BFF"/>
<path d="M587.71 498.704C589.012 498.704 589.559 497.676 589.676 496.413C589.793 495.15 589.376 494.121 588.113 494.121C586.851 494.121 586.265 495.15 586.147 496.413C586.03 497.676 586.447 498.704 587.71 498.704Z" fill="#407BFF"/>
<path d="M557.204 557.828H518.144C517.085 557.847 516.034 557.641 515.061 557.222C514.088 556.803 513.215 556.182 512.5 555.4C511.786 554.618 511.246 553.693 510.917 552.686C510.588 551.679 510.478 550.613 510.592 549.56C510.824 547.322 511.867 545.245 513.524 543.722C515.182 542.199 517.339 541.335 519.589 541.293H558.649C559.708 541.276 560.758 541.484 561.73 541.903C562.702 542.322 563.574 542.943 564.288 543.725C565.002 544.507 565.542 545.431 565.871 546.437C566.201 547.443 566.313 548.508 566.201 549.56C565.972 551.8 564.93 553.879 563.272 555.402C561.614 556.926 559.455 557.789 557.204 557.828Z" fill="#407BFF"/>
<path d="M552.478 650.036H510.671C509.549 650.066 508.434 649.855 507.402 649.415C506.369 648.976 505.443 648.32 504.687 647.491C503.931 646.662 503.362 645.68 503.02 644.611C502.677 643.543 502.569 642.413 502.702 641.299L505.371 610.806C505.61 608.441 506.708 606.245 508.457 604.635C510.207 603.025 512.486 602.112 514.863 602.07H556.683C557.802 602.05 558.912 602.269 559.939 602.712C560.966 603.155 561.888 603.811 562.641 604.638C563.395 605.464 563.964 606.442 564.311 607.506C564.658 608.569 564.774 609.694 564.651 610.806L561.982 641.299C561.738 643.665 560.636 645.859 558.886 647.469C557.135 649.078 554.855 649.991 552.478 650.036Z" fill="#407BFF"/>
<g opacity="0.6">
<path d="M539.588 618.501C539.656 617.836 539.583 617.163 539.372 616.529C539.161 615.894 538.817 615.311 538.365 614.819C537.912 614.326 537.359 613.936 536.744 613.673C536.129 613.41 535.465 613.281 534.797 613.293C533.372 613.314 532.005 613.855 530.952 614.814C529.899 615.773 529.233 617.085 529.081 618.501C528.998 619.293 529.115 620.094 529.423 620.828C529.73 621.563 530.217 622.209 530.839 622.707L529.927 633.214C529.883 633.612 529.923 634.015 530.047 634.396C530.171 634.777 530.375 635.127 530.645 635.422C530.914 635.718 531.245 635.953 531.613 636.111C531.981 636.269 532.378 636.347 532.778 636.339C533.627 636.321 534.439 635.993 535.063 635.417C535.687 634.842 536.078 634.058 536.164 633.214L537.088 622.707C537.786 622.23 538.371 621.606 538.803 620.88C539.234 620.154 539.502 619.342 539.588 618.501Z" fill="white"/>
</g>
<path d="M557.048 608.424H551.657L552.959 593.334C553.187 591.239 552.966 589.12 552.312 587.118C551.658 585.115 550.586 583.275 549.166 581.718C547.746 580.162 546.012 578.925 544.078 578.091C542.143 577.256 540.054 576.842 537.947 576.876C533.471 576.964 529.181 578.685 525.886 581.717C522.591 584.748 520.518 588.88 520.058 593.334L518.756 608.424H513.366L514.668 593.334C515.274 587.423 518.023 581.939 522.396 577.916C526.769 573.894 532.463 571.611 538.403 571.499C541.199 571.451 543.973 571.999 546.541 573.106C549.109 574.212 551.412 575.853 553.297 577.918C555.183 579.983 556.607 582.426 557.476 585.083C558.345 587.741 558.638 590.554 558.337 593.334L557.048 608.424Z" fill="#407BFF"/>
<path d="M588.283 522.843L588.452 521.372C588.487 521.031 588.449 520.687 588.342 520.361C588.234 520.036 588.059 519.736 587.828 519.483C587.597 519.23 587.315 519.029 587.001 518.892C586.687 518.755 586.347 518.686 586.004 518.69C585.275 518.705 584.576 518.986 584.039 519.48C583.502 519.974 583.164 520.646 583.088 521.372L582.958 522.817C582.666 522.825 582.387 522.94 582.174 523.139C581.961 523.338 581.827 523.608 581.799 523.898L581.46 527.804C581.443 527.94 581.456 528.079 581.498 528.21C581.539 528.341 581.609 528.462 581.702 528.563C581.795 528.665 581.909 528.745 582.036 528.798C582.162 528.851 582.299 528.876 582.437 528.872H587.801C588.091 528.867 588.37 528.755 588.584 528.558C588.797 528.361 588.931 528.093 588.96 527.804L589.298 523.898C589.31 523.76 589.291 523.621 589.245 523.491C589.198 523.36 589.124 523.241 589.028 523.142C588.932 523.042 588.816 522.964 588.688 522.912C588.559 522.861 588.421 522.837 588.283 522.843ZM585.848 519.38C586.106 519.377 586.362 519.428 586.599 519.531C586.837 519.634 587.049 519.785 587.224 519.976C587.398 520.166 587.531 520.391 587.612 520.636C587.694 520.881 587.723 521.141 587.697 521.398L587.567 522.843H583.53L583.661 521.398C583.717 520.853 583.971 520.348 584.374 519.976C584.776 519.605 585.3 519.393 585.848 519.38Z" fill="#407BFF"/>
<path d="M507.533 524.393L505.658 524.002C505.606 523.991 505.557 523.969 505.514 523.936C505.472 523.904 505.438 523.862 505.414 523.815C505.39 523.767 505.377 523.715 505.377 523.661C505.376 523.608 505.388 523.555 505.41 523.507L506.192 521.658C506.224 521.579 506.227 521.49 506.201 521.408C506.174 521.326 506.119 521.256 506.045 521.211C505.972 521.165 505.885 521.148 505.8 521.16C505.714 521.173 505.637 521.216 505.58 521.281L504.161 522.739C504.126 522.782 504.083 522.817 504.033 522.842C503.984 522.866 503.929 522.878 503.874 522.878C503.819 522.878 503.764 522.866 503.715 522.842C503.665 522.817 503.622 522.782 503.588 522.739L502.429 521.281C502.181 520.968 501.648 521.281 501.739 521.658L502.195 523.507C502.208 523.561 502.21 523.617 502.2 523.672C502.191 523.727 502.17 523.779 502.14 523.826C502.109 523.872 502.069 523.912 502.023 523.942C501.976 523.972 501.924 523.993 501.869 524.002L499.929 524.393C499.512 524.471 499.46 525.057 499.864 525.135L501.739 525.525C501.791 525.535 501.841 525.557 501.883 525.59C501.925 525.623 501.959 525.665 501.982 525.713C502.005 525.761 502.016 525.814 502.014 525.868C502.013 525.921 501.999 525.973 501.973 526.02L501.218 527.882C501.186 527.962 501.182 528.051 501.209 528.133C501.236 528.215 501.291 528.284 501.364 528.33C501.438 528.375 501.525 528.393 501.61 528.38C501.695 528.367 501.773 528.324 501.83 528.26L503.249 526.801C503.286 526.762 503.33 526.73 503.379 526.709C503.429 526.687 503.482 526.676 503.536 526.676C503.589 526.676 503.643 526.687 503.692 526.709C503.741 526.73 503.785 526.762 503.822 526.801L504.981 528.26C505.228 528.572 505.762 528.26 505.658 527.882L505.202 526.033C505.183 525.923 505.208 525.809 505.271 525.717C505.334 525.625 505.431 525.56 505.541 525.538L507.481 525.148C507.884 525.057 507.936 524.471 507.533 524.393Z" fill="#263238"/>
<path d="M519.85 524.393L517.975 524.002C517.923 523.991 517.873 523.969 517.831 523.936C517.789 523.904 517.755 523.862 517.731 523.815C517.707 523.767 517.694 523.715 517.694 523.661C517.693 523.608 517.705 523.555 517.727 523.507L518.509 521.658C518.541 521.579 518.544 521.49 518.517 521.408C518.491 521.326 518.436 521.256 518.362 521.211C518.289 521.165 518.202 521.148 518.117 521.16C518.031 521.173 517.953 521.216 517.897 521.281L516.477 522.739C516.443 522.782 516.4 522.817 516.35 522.842C516.301 522.866 516.246 522.878 516.191 522.878C516.136 522.878 516.081 522.866 516.032 522.842C515.982 522.817 515.939 522.782 515.905 522.739L514.746 521.281C514.498 520.968 513.965 521.281 514.069 521.658L514.524 523.507C514.536 523.562 514.536 523.619 514.525 523.673C514.514 523.728 514.492 523.78 514.46 523.826C514.429 523.873 514.388 523.912 514.341 523.942C514.294 523.972 514.241 523.993 514.186 524.002L512.246 524.393C511.829 524.471 511.777 525.057 512.181 525.135L514.056 525.525C514.108 525.536 514.157 525.558 514.199 525.591C514.242 525.623 514.276 525.665 514.3 525.713C514.324 525.76 514.336 525.813 514.337 525.866C514.337 525.919 514.326 525.972 514.303 526.02L513.522 527.869C513.489 527.949 513.486 528.038 513.513 528.12C513.54 528.202 513.595 528.271 513.668 528.317C513.742 528.362 513.829 528.38 513.914 528.367C513.999 528.354 514.077 528.311 514.134 528.247L515.553 526.788C515.59 526.749 515.634 526.717 515.683 526.696C515.732 526.674 515.786 526.663 515.839 526.663C515.893 526.663 515.946 526.674 515.996 526.696C516.045 526.717 516.089 526.749 516.126 526.788L517.285 528.247C517.532 528.559 518.066 528.246 517.975 527.869L517.519 526.02C517.508 525.966 517.507 525.911 517.517 525.856C517.527 525.802 517.548 525.751 517.579 525.705C517.609 525.659 517.648 525.619 517.694 525.588C517.739 525.558 517.791 525.536 517.845 525.525L519.785 525.135C520.201 525.057 520.253 524.471 519.85 524.393Z" fill="#263238"/>
<path d="M532.167 524.393L530.305 524.002C530.251 523.994 530.2 523.973 530.156 523.941C530.113 523.909 530.077 523.867 530.053 523.819C530.029 523.77 530.016 523.717 530.017 523.663C530.018 523.608 530.032 523.555 530.057 523.507L530.838 521.658C530.889 521.576 530.904 521.476 530.88 521.382C530.857 521.288 530.798 521.207 530.715 521.157C530.632 521.107 530.533 521.092 530.439 521.115C530.345 521.138 530.264 521.198 530.214 521.281L528.807 522.739C528.772 522.783 528.727 522.818 528.677 522.842C528.626 522.866 528.571 522.879 528.514 522.879C528.458 522.879 528.403 522.866 528.352 522.842C528.302 522.818 528.257 522.783 528.221 522.739L527.063 521.281C526.815 520.968 526.281 521.281 526.386 521.658L526.841 523.507C526.853 523.561 526.853 523.617 526.843 523.671C526.833 523.725 526.812 523.777 526.782 523.823C526.752 523.869 526.712 523.908 526.667 523.939C526.621 523.97 526.57 523.991 526.516 524.002L524.576 524.393C524.159 524.471 524.107 525.057 524.511 525.135L526.373 525.525C526.425 525.536 526.474 525.558 526.516 525.591C526.558 525.623 526.593 525.665 526.617 525.713C526.641 525.76 526.653 525.813 526.654 525.866C526.654 525.919 526.643 525.972 526.62 526.02L525.839 527.869C525.789 527.952 525.774 528.051 525.797 528.145C525.82 528.239 525.88 528.32 525.962 528.37C526.045 528.42 526.145 528.435 526.239 528.412C526.333 528.389 526.414 528.329 526.464 528.247L527.87 526.788C527.906 526.749 527.951 526.717 528 526.696C528.049 526.674 528.103 526.663 528.156 526.663C528.21 526.663 528.263 526.674 528.313 526.696C528.362 526.717 528.406 526.749 528.443 526.788L529.615 528.247C529.862 528.559 530.396 528.247 530.292 527.869L529.836 526.02C529.816 525.912 529.839 525.8 529.9 525.708C529.96 525.616 530.054 525.55 530.161 525.525L532.101 525.135C532.466 525.057 532.57 524.471 532.167 524.393Z" fill="#263238"/>
<path d="M544.496 524.393L542.622 524.002C542.569 523.991 542.52 523.969 542.478 523.936C542.436 523.904 542.401 523.862 542.378 523.815C542.354 523.767 542.341 523.715 542.34 523.661C542.34 523.608 542.351 523.555 542.374 523.507L543.155 521.658C543.188 521.579 543.191 521.49 543.164 521.408C543.137 521.326 543.083 521.256 543.009 521.211C542.936 521.165 542.849 521.148 542.764 521.16C542.678 521.173 542.6 521.216 542.543 521.281L541.124 522.739C541.09 522.782 541.047 522.817 540.997 522.842C540.947 522.866 540.893 522.878 540.838 522.878C540.783 522.878 540.728 522.866 540.679 522.842C540.629 522.817 540.586 522.782 540.551 522.739L539.393 521.281C539.145 520.968 538.611 521.281 538.703 521.658L539.158 523.507C539.172 523.561 539.174 523.617 539.164 523.672C539.155 523.727 539.134 523.779 539.104 523.826C539.073 523.872 539.033 523.912 538.987 523.942C538.94 523.972 538.888 523.993 538.833 524.002L536.893 524.393C536.476 524.471 536.424 525.057 536.893 525.135L538.768 525.525C538.82 525.535 538.869 525.557 538.912 525.59C538.954 525.623 538.988 525.665 539.011 525.713C539.034 525.761 539.045 525.814 539.043 525.868C539.042 525.921 539.028 525.973 539.002 526.02L538.234 527.869C538.201 527.949 538.198 528.038 538.225 528.12C538.252 528.202 538.307 528.271 538.38 528.317C538.453 528.362 538.541 528.38 538.626 528.367C538.711 528.354 538.789 528.311 538.846 528.247L540.265 526.788C540.302 526.749 540.346 526.717 540.395 526.696C540.444 526.674 540.498 526.663 540.551 526.663C540.605 526.663 540.658 526.674 540.708 526.696C540.757 526.717 540.801 526.749 540.838 526.788L541.997 528.247C542.244 528.559 542.778 528.246 542.674 527.869L542.218 526.02C542.199 525.91 542.223 525.796 542.287 525.704C542.35 525.611 542.447 525.547 542.556 525.525L544.496 525.135C544.848 525.057 544.9 524.471 544.496 524.393Z" fill="#263238"/>
<path d="M556.813 524.393L554.939 524.002C554.886 523.991 554.837 523.969 554.795 523.936C554.753 523.904 554.718 523.862 554.694 523.815C554.671 523.767 554.658 523.715 554.657 523.661C554.657 523.608 554.668 523.555 554.691 523.507L555.472 521.658C555.505 521.579 555.508 521.49 555.481 521.408C555.454 521.326 555.399 521.256 555.326 521.211C555.253 521.165 555.166 521.148 555.08 521.16C554.995 521.173 554.917 521.216 554.86 521.281L553.441 522.739C553.407 522.782 553.364 522.817 553.314 522.842C553.264 522.866 553.21 522.878 553.155 522.878C553.1 522.878 553.045 522.866 552.996 522.842C552.946 522.817 552.902 522.782 552.868 522.739L551.71 521.281C551.462 520.968 550.928 521.281 551.033 521.658L551.488 523.507C551.499 523.562 551.5 523.619 551.489 523.673C551.478 523.728 551.456 523.78 551.424 523.826C551.392 523.873 551.352 523.912 551.305 523.942C551.258 523.972 551.205 523.993 551.15 524.002L549.21 524.393C548.793 524.471 548.741 525.057 549.145 525.135L551.019 525.525C551.072 525.536 551.121 525.558 551.163 525.591C551.205 525.623 551.24 525.665 551.264 525.713C551.287 525.76 551.3 525.813 551.301 525.866C551.301 525.919 551.29 525.972 551.267 526.02L550.486 527.869C550.453 527.949 550.45 528.038 550.477 528.12C550.504 528.202 550.559 528.271 550.632 528.317C550.705 528.362 550.792 528.38 550.878 528.367C550.963 528.354 551.041 528.311 551.098 528.247L552.517 526.788C552.553 526.749 552.598 526.717 552.647 526.696C552.696 526.674 552.749 526.663 552.803 526.663C552.857 526.663 552.91 526.674 552.959 526.696C553.009 526.717 553.053 526.749 553.09 526.788L554.248 528.247C554.496 528.559 555.03 528.246 554.939 527.869L554.483 526.02C554.471 525.966 554.471 525.911 554.481 525.856C554.491 525.802 554.512 525.751 554.542 525.705C554.573 525.659 554.612 525.619 554.657 525.588C554.703 525.558 554.754 525.536 554.808 525.525L556.748 525.135C557.204 525.057 557.204 524.471 556.813 524.393Z" fill="#263238"/>
<path d="M569.13 524.393L567.255 524.002C567.203 523.992 567.154 523.97 567.111 523.937C567.069 523.905 567.035 523.863 567.012 523.814C566.989 523.766 566.978 523.713 566.98 523.66C566.981 523.606 566.996 523.554 567.021 523.507L567.802 521.659C567.827 521.618 567.844 521.572 567.851 521.525C567.858 521.477 567.856 521.429 567.844 521.382C567.833 521.336 567.812 521.292 567.784 521.253C567.755 521.215 567.72 521.182 567.679 521.157C567.638 521.132 567.592 521.116 567.545 521.109C567.497 521.102 567.449 521.104 567.402 521.115C567.356 521.127 567.312 521.147 567.273 521.176C567.235 521.204 567.202 521.24 567.177 521.281L565.771 522.739C565.736 522.783 565.691 522.818 565.64 522.842C565.59 522.866 565.534 522.879 565.478 522.879C565.422 522.879 565.367 522.866 565.316 522.842C565.265 522.818 565.221 522.783 565.185 522.739L564.026 521.281C563.779 520.968 563.245 521.281 563.349 521.659L563.805 523.507C563.817 523.561 563.817 523.617 563.807 523.671C563.797 523.725 563.776 523.777 563.746 523.823C563.715 523.869 563.676 523.908 563.631 523.939C563.585 523.97 563.534 523.991 563.48 524.002L561.54 524.393C561.123 524.471 561.071 525.057 561.475 525.135L563.336 525.525C563.389 525.536 563.438 525.559 563.48 525.591C563.522 525.623 563.557 525.665 563.58 525.713C563.604 525.76 563.617 525.813 563.618 525.866C563.618 525.919 563.607 525.972 563.584 526.02L562.803 527.869C562.753 527.952 562.737 528.051 562.761 528.145C562.784 528.239 562.843 528.32 562.926 528.37C563.009 528.42 563.109 528.436 563.203 528.412C563.297 528.389 563.377 528.33 563.428 528.247L564.834 526.788C564.87 526.749 564.915 526.718 564.964 526.696C565.013 526.674 565.066 526.663 565.12 526.663C565.174 526.663 565.227 526.674 565.276 526.696C565.326 526.718 565.37 526.749 565.407 526.788L566.565 528.247C566.626 528.315 566.708 528.36 566.798 528.376C566.888 528.392 566.981 528.376 567.061 528.332C567.141 528.289 567.204 528.219 567.239 528.135C567.274 528.051 567.28 527.957 567.255 527.869L566.8 526.02C566.78 525.912 566.803 525.8 566.864 525.708C566.924 525.616 567.018 525.55 567.125 525.525L569.065 525.135C569.482 525.057 569.534 524.471 569.13 524.393Z" fill="#263238"/>
<path d="M539.432 497.428H516.308C515.599 497.44 514.918 497.712 514.395 498.192C513.872 498.672 513.543 499.326 513.47 500.032C513.433 500.364 513.467 500.701 513.57 501.019C513.674 501.337 513.844 501.629 514.07 501.875C514.296 502.122 514.571 502.317 514.879 502.449C515.186 502.58 515.518 502.644 515.852 502.636H538.976C539.686 502.624 540.366 502.352 540.889 501.873C541.412 501.393 541.741 500.738 541.814 500.032C541.849 499.7 541.814 499.365 541.709 499.048C541.605 498.731 541.435 498.44 541.209 498.194C540.984 497.947 540.709 497.752 540.403 497.62C540.096 497.488 539.765 497.423 539.432 497.428Z" fill="#263238"/>
<path d="M562.92 497.428H549.496C548.788 497.441 548.109 497.713 547.588 498.193C547.067 498.673 546.741 499.327 546.671 500.032C546.634 500.363 546.668 500.699 546.77 501.016C546.873 501.332 547.042 501.624 547.267 501.87C547.491 502.117 547.765 502.313 548.071 502.445C548.377 502.577 548.707 502.642 549.04 502.636H562.412C563.12 502.624 563.799 502.352 564.32 501.872C564.841 501.392 565.167 500.737 565.237 500.032C565.274 499.705 565.241 499.375 565.142 499.061C565.042 498.748 564.877 498.459 564.659 498.214C564.44 497.968 564.173 497.771 563.873 497.636C563.573 497.501 563.249 497.43 562.92 497.428Z" fill="#263238"/>
<path d="M580.64 615.455C572.467 618.568 565.089 623.46 559.04 629.777C555.367 626.925 550.988 625.125 546.371 624.569L545.759 624.477L545.499 627.55L545.838 627.68C550.901 629.545 555.183 633.069 557.985 637.68L558.428 638.409L558.91 637.628C564.302 629.02 571.911 622.022 580.939 617.369L581.239 617.212L581.408 615.181L580.64 615.455Z" fill="#263238"/>
<path opacity="0.2" d="M464.293 359.104C462.634 362.001 461.613 365.219 461.299 368.543L441.912 590.17H501.908L513.965 543.962L509.993 497.741L522.05 451.533L518.144 405.325L530.201 359.104H464.293Z" fill="black"/>
<path d="M512.871 392.305L524.927 346.084H373.205L361.162 392.305L365.12 438.513L353.076 484.721L357.035 530.942L344.991 577.15H496.7L508.757 530.942L504.785 484.721L516.842 438.513L512.871 392.305Z" fill="#407BFF"/>
<path opacity="0.7" d="M512.871 392.305L524.927 346.084H373.205L361.162 392.305L365.12 438.513L353.076 484.721L357.035 530.942L344.991 577.15H496.7L508.757 530.942L504.785 484.721L516.842 438.513L512.871 392.305Z" fill="white"/>
<path opacity="0.5" d="M512.871 392.305H361.162L373.205 346.084H524.927L512.871 392.305Z" fill="white"/>
<path opacity="0.5" d="M504.785 484.721H353.076L365.12 438.513H516.842L504.785 484.721Z" fill="white"/>
<path opacity="0.5" d="M496.7 577.15H344.978L357.035 530.942H508.757L496.7 577.15Z" fill="white"/>
<path opacity="0.2" d="M492.573 411.613C491.016 412.063 489.402 412.283 487.781 412.264C485.584 412.362 483.397 411.914 481.415 410.962C481.056 410.75 480.647 410.637 480.23 410.637C479.847 410.642 479.472 410.74 479.136 410.923H479.058C478.476 411.25 477.855 411.499 477.209 411.665C475.752 412.05 474.25 412.238 472.743 412.225C472.288 412.225 471.845 412.225 471.441 412.225C470.272 412.15 469.115 411.945 467.991 411.613C467.826 411.564 467.655 411.534 467.483 411.522C467.197 411.499 466.909 411.535 466.637 411.628C466.365 411.722 466.116 411.87 465.904 412.065C465.693 412.259 465.524 412.495 465.408 412.758C465.292 413.021 465.232 413.305 465.231 413.592V414.999H406.172C405.087 414.999 404.012 415.212 403.01 415.628C402.008 416.044 401.097 416.653 400.33 417.421C399.564 418.189 398.956 419.1 398.542 420.103C398.128 421.106 397.916 422.181 397.917 423.266V431.586C397.914 432.672 398.125 433.748 398.538 434.753C398.952 435.757 399.559 436.671 400.326 437.44C401.093 438.209 402.004 438.819 403.007 439.236C404.01 439.652 405.086 439.867 406.172 439.867H473.264H473.707C474.423 440.466 475.178 441.065 475.985 441.677C476.792 442.288 477.938 443.135 478.993 443.89C479.353 444.15 479.786 444.291 480.23 444.291C480.674 444.291 481.107 444.15 481.467 443.89C489.904 437.771 495.32 433.552 495.32 421.964V413.631C495.324 413.298 495.249 412.969 495.1 412.671C494.951 412.372 494.733 412.114 494.465 411.916C494.196 411.719 493.885 411.589 493.555 411.536C493.226 411.483 492.89 411.51 492.573 411.613Z" fill="black"/>
<path d="M471.975 410.429H404.896C400.33 410.429 396.628 414.13 396.628 418.696V427.016C396.628 431.582 400.33 435.284 404.896 435.284H471.975C476.541 435.284 480.243 431.582 480.243 427.016V418.696C480.243 414.13 476.541 410.429 471.975 410.429Z" fill="#407BFF"/>
<path d="M486.492 407.681C484.296 407.775 482.109 407.328 480.126 406.379C479.773 406.163 479.368 406.048 478.954 406.048C478.54 406.048 478.135 406.163 477.782 406.379C475.794 407.33 473.603 407.777 471.402 407.681C469.782 407.699 468.168 407.479 466.611 407.03C466.297 406.925 465.963 406.896 465.636 406.945C465.308 406.994 464.998 407.121 464.729 407.315C464.461 407.508 464.242 407.763 464.092 408.057C463.941 408.352 463.863 408.678 463.864 409.009V417.342C463.864 428.943 469.28 433.161 477.717 439.281C478.077 439.541 478.51 439.682 478.954 439.682C479.398 439.682 479.831 439.541 480.191 439.281C488.628 433.161 494.044 428.943 494.044 417.342V409.009C494.043 408.678 493.963 408.352 493.81 408.057C493.658 407.762 493.439 407.508 493.169 407.315C492.9 407.122 492.589 406.995 492.261 406.946C491.933 406.896 491.598 406.925 491.284 407.03C489.727 407.48 488.113 407.7 486.492 407.681Z" fill="#407BFF"/>
<path opacity="0.3" d="M486.492 407.681C484.296 407.775 482.109 407.328 480.126 406.379C479.773 406.163 479.368 406.048 478.954 406.048C478.54 406.048 478.135 406.163 477.782 406.379C475.794 407.33 473.603 407.777 471.402 407.681C469.782 407.699 468.168 407.479 466.611 407.03C466.297 406.925 465.963 406.896 465.636 406.945C465.308 406.994 464.998 407.121 464.729 407.315C464.461 407.508 464.242 407.763 464.092 408.057C463.941 408.352 463.863 408.678 463.864 409.009V417.342C463.864 428.943 469.28 433.161 477.717 439.281C478.077 439.541 478.51 439.682 478.954 439.682C479.398 439.682 479.831 439.541 480.191 439.281C488.628 433.161 494.044 428.943 494.044 417.342V409.009C494.043 408.678 493.963 408.352 493.81 408.057C493.658 407.762 493.439 407.508 493.169 407.315C492.9 407.122 492.589 406.995 492.261 406.946C491.933 406.896 491.598 406.925 491.284 407.03C489.727 407.48 488.113 407.7 486.492 407.681Z" fill="white"/>
<path opacity="0.2" d="M477.782 406.353C475.794 407.304 473.603 407.751 471.402 407.655C469.782 407.672 468.168 407.452 466.611 407.004C466.297 406.899 465.963 406.87 465.636 406.919C465.308 406.968 464.998 407.095 464.729 407.289C464.461 407.482 464.242 407.737 464.092 408.031C463.941 408.326 463.863 408.652 463.864 408.983V417.316C463.864 428.917 469.28 433.135 477.717 439.255C478.095 439.529 478.552 439.671 479.019 439.658V406.015C478.583 406.006 478.153 406.124 477.782 406.353Z" fill="white"/>
<path d="M491.049 415.077C485.974 417.065 481.454 420.25 477.873 424.36C475.376 422.519 472.449 421.349 469.371 420.962H468.967V422.954L469.189 423.032C472.612 424.267 475.562 426.544 477.626 429.542L477.951 430.011L478.225 429.503C481.218 423.94 485.776 419.377 491.336 416.379L491.531 416.288V414.986L491.049 415.077Z" fill="#263238"/>
<path d="M522.245 359.091H516.49C515.75 359.104 515.015 358.96 514.335 358.668C513.655 358.375 513.045 357.94 512.546 357.393C512.047 356.846 511.67 356.199 511.441 355.495C511.212 354.791 511.136 354.046 511.217 353.31L511.725 347.555C511.881 345.99 512.607 344.537 513.763 343.471C514.92 342.405 516.428 341.801 518.001 341.774H523.756C524.497 341.758 525.233 341.901 525.915 342.193C526.597 342.485 527.208 342.919 527.709 343.466C528.209 344.014 528.587 344.662 528.817 345.367C529.047 346.072 529.123 346.818 529.042 347.555L528.534 353.31C528.359 354.87 527.626 356.314 526.47 357.376C525.315 358.438 523.814 359.047 522.245 359.091Z" fill="#407BFF"/>
<path d="M524.641 347.542L523.391 346.162L520.24 349.052L517.61 346.162L516.113 347.542L518.756 350.432L515.618 353.323L516.868 354.69L520.006 351.799L522.649 354.69L524.133 353.323L521.49 350.432L524.641 347.542Z" fill="white"/>
<path d="M393.634 408.736C396.967 412.369 400.144 416.131 403.308 419.92C406.471 423.709 409.531 427.576 412.578 431.456C412.708 431.625 412.656 431.56 412.682 431.612C412.708 431.664 412.682 431.677 412.682 431.69C412.705 431.738 412.736 431.783 412.773 431.82C412.884 431.978 413.025 432.112 413.188 432.215C413.352 432.318 413.533 432.387 413.724 432.419C413.87 432.439 414.019 432.439 414.166 432.419C414.244 432.425 414.323 432.425 414.401 432.419H414.518C414.583 432.419 414.518 432.419 414.726 432.341L417.981 430.57C422.356 428.253 426.77 425.987 431.327 423.956L435.141 428.683C431.47 432.055 427.642 436.286 423.775 439.385L420.859 441.677C420.677 441.824 420.486 441.959 420.286 442.08C420.065 442.237 419.834 442.381 419.596 442.51C419.124 442.781 418.637 443.025 418.137 443.239C417.129 443.663 416.07 443.956 414.987 444.111C412.796 444.433 410.56 444.209 408.477 443.46C407.417 443.084 406.41 442.572 405.482 441.937C405.013 441.624 404.571 441.26 404.18 440.908C403.959 440.726 403.776 440.518 403.568 440.322L403.047 439.802C399.597 436.26 396.199 432.693 392.866 429.06C389.532 425.428 386.238 421.769 383.088 417.967L393.634 408.736Z" fill="#B55B52"/>
<path d="M429.608 426.821L432.642 417.069L440.636 421.053C440.636 421.053 439.464 428.162 433.657 429.399L429.608 426.821Z" fill="#B55B52"/>
<path d="M435.832 414.374L443.045 416.353L440.623 421.053L432.629 417.069L435.832 414.374Z" fill="#B55B52"/>
<path d="M351.605 411.392C350.746 415.532 349.678 419.634 348.572 423.722C347.465 427.81 346.254 431.859 344.991 435.909L344.522 437.432L344.288 438.187C344.256 438.296 344.213 438.401 344.158 438.5C344.009 438.918 343.926 439.358 343.91 439.802C343.883 440.748 344.146 441.679 344.666 442.471C344.922 442.818 345.205 443.144 345.512 443.447L346.592 444.632L348.728 447.015C350.121 448.629 351.527 450.244 352.855 451.936L348.311 457.144C346.436 456.077 344.639 454.918 342.843 453.772L340.174 452.001L338.872 451.103C338.429 450.791 338.064 450.582 337.348 449.996C334.801 447.825 333.043 444.873 332.349 441.598C331.999 439.929 331.916 438.216 332.101 436.521C332.101 436.104 332.231 435.635 332.297 435.219L332.44 434.437L332.713 432.875C333.442 428.696 334.223 424.529 335.096 420.389C335.968 416.248 336.906 412.121 338.012 408.046L351.605 411.392Z" fill="#B55B52"/>
<path d="M348.402 451.52L353.767 448.772L356.136 457.886C356.136 457.886 351.827 459.54 348.493 457.418L348.402 451.52Z" fill="#B55B52"/>
<path d="M361.188 445.843L361.435 454.228L355.433 458.147L353.35 448.942L361.188 445.843Z" fill="#B55B52"/>
<path d="M378.752 368.348C378.882 368.986 379.338 369.442 379.754 369.363C380.171 369.285 380.418 368.686 380.288 368.061C380.158 367.436 379.702 366.968 379.286 367.046C378.869 367.124 378.622 367.736 378.752 368.348Z" fill="#263238"/>
<path d="M379.273 369.455C380.445 371.271 381.86 372.918 383.478 374.35C383.101 374.756 382.641 375.075 382.128 375.284C381.615 375.493 381.063 375.588 380.51 375.561L379.273 369.455Z" fill="#A02724"/>
<path d="M375.666 365.249C375.591 365.248 375.518 365.226 375.455 365.184C375.393 365.143 375.344 365.085 375.313 365.016C375.283 364.947 375.273 364.871 375.285 364.797C375.297 364.723 375.33 364.654 375.38 364.598C375.787 364.137 376.298 363.779 376.871 363.552C377.443 363.326 378.061 363.238 378.674 363.296C378.724 363.306 378.772 363.325 378.815 363.353C378.858 363.381 378.895 363.417 378.924 363.459C378.953 363.502 378.974 363.549 378.984 363.599C378.995 363.65 378.996 363.701 378.986 363.752C378.978 363.802 378.961 363.85 378.934 363.892C378.907 363.935 378.872 363.973 378.831 364.002C378.79 364.031 378.743 364.051 378.694 364.062C378.644 364.073 378.593 364.074 378.544 364.064C378.058 364.018 377.568 364.088 377.115 364.269C376.662 364.45 376.259 364.737 375.94 365.106C375.87 365.187 375.772 365.238 375.666 365.249Z" fill="#263238"/>
<path d="M359.977 377.423C361.409 383.399 362.854 394.349 357.725 398.32C357.725 398.32 359.73 404.387 373.349 404.387C388.322 404.387 380.51 400.481 380.51 400.481C372.333 398.893 372.541 391.797 374 387.149L359.977 377.423Z" fill="#B55B52"/>
<path d="M356.123 399.427C355.238 397.773 354.248 395.872 356.279 395.273C358.519 394.622 372.88 393.411 377.111 394.635C375.809 396.94 378.01 399.843 378.01 399.843L356.123 399.427Z" fill="#263238"/>
<path d="M368.023 678.81H377.411L378.348 659.905H368.948L368.023 678.81Z" fill="#B55B52"/>
<path d="M308.405 676.206L317.922 676.714L323.703 658.082L314.186 657.574L308.405 676.206Z" fill="#B55B52"/>
<path d="M317.636 675.959L308.665 674.018C308.508 673.983 308.344 674.002 308.199 674.073C308.054 674.144 307.939 674.263 307.871 674.409L304.759 681.167C304.683 681.331 304.645 681.51 304.648 681.691C304.652 681.872 304.697 682.05 304.78 682.211C304.863 682.372 304.981 682.511 305.127 682.619C305.272 682.727 305.44 682.8 305.619 682.833C308.756 683.458 310.319 683.601 314.264 684.461C316.686 684.981 322.167 686.322 325.513 687.065C328.859 687.807 330.018 684.578 328.716 683.979C322.857 681.31 320.409 678.953 318.821 676.753C318.536 676.353 318.114 676.07 317.636 675.959Z" fill="#263238"/>
<path d="M376.916 677.859H367.997C367.836 677.861 367.68 677.918 367.555 678.019C367.43 678.121 367.342 678.262 367.307 678.419L365.693 685.671C365.651 685.847 365.65 686.03 365.69 686.206C365.73 686.382 365.809 686.546 365.922 686.687C366.035 686.828 366.179 686.941 366.342 687.017C366.505 687.094 366.684 687.132 366.865 687.129C370.081 687.129 374.677 686.882 378.778 686.882C383.504 686.882 387.579 687.143 393.1 687.143C396.446 687.143 397.384 683.757 395.977 683.445C389.585 682.052 384.377 681.895 378.856 678.497C378.279 678.113 377.609 677.892 376.916 677.859Z" fill="#263238"/>
<path d="M340.707 401.08C333.625 404.452 331.698 424.894 331.698 424.894L349.236 432.992C352.2 427.992 353.815 422.308 353.923 416.496C354.274 405.937 347.96 397.682 340.707 401.08Z" fill="#263238"/>
<path opacity="0.4" d="M350.186 413.684C347.022 418.605 347.322 426.209 348.415 432.628L349.197 432.992C352.158 427.991 353.773 422.307 353.884 416.496C353.884 415.871 353.884 415.194 353.884 414.634L350.186 413.684Z" fill="black"/>
<path d="M389.65 400.585C389.65 400.585 398.347 410.402 390.131 471.154H346.475C346.176 464.449 350.381 431.755 343.871 400.169C348.696 399.241 353.576 398.623 358.48 398.32C364.664 397.968 370.862 397.968 377.046 398.32C381.299 398.751 385.513 399.508 389.65 400.585Z" fill="#407BFF"/>
<path opacity="0.6" d="M389.65 400.585C389.65 400.585 398.347 410.402 390.131 471.154H346.475C346.176 464.449 350.381 431.755 343.871 400.169C348.696 399.241 353.576 398.623 358.48 398.32C364.664 397.968 370.862 397.968 377.046 398.32C381.299 398.751 385.513 399.508 389.65 400.585Z" fill="#FAFAFA"/>
<path opacity="0.2" d="M393.465 419.152L393.308 419.009L384.624 414.374C383.739 427.745 389.715 436.13 393.269 439.789C393.715 432.919 393.78 426.029 393.465 419.152Z" fill="black"/>
<path opacity="0.2" d="M378.348 659.905L377.867 669.657H368.466L368.948 659.905H378.348Z" fill="black"/>
<path opacity="0.2" d="M314.186 657.587L323.703 658.082L320.722 667.691L311.204 667.183L314.186 657.587Z" fill="black"/>
<path d="M356.956 371.356C359.053 379.168 359.886 383.868 364.768 387.123C372.034 392.018 381.069 386.394 381.356 378.1C381.603 370.639 378.14 359.091 369.742 357.515C367.888 357.148 365.971 357.263 364.174 357.848C362.377 358.434 360.759 359.47 359.477 360.858C358.194 362.246 357.289 363.94 356.848 365.778C356.407 367.616 356.444 369.536 356.956 371.356Z" fill="#B55B52"/>
<path d="M374.651 471.154C374.651 471.154 365.38 533.533 360.329 556.917C354.73 582.566 324.862 667.196 324.862 667.196L310.241 664.032C310.241 664.032 328.976 595.026 333.677 559.247C335.499 545.277 337.7 522.791 340.486 504.003C343.181 485.775 346.501 471.167 346.501 471.167L374.651 471.154Z" fill="#263238"/>
<path d="M328.364 662.313L325.63 667.6L309.199 664.032L310.579 659.098L328.364 662.313Z" fill="#407BFF"/>
<path opacity="0.6" d="M328.364 662.313L325.63 667.6L309.199 664.032L310.579 659.098L328.364 662.313Z" fill="white"/>
<path opacity="0.6" d="M368.792 493.379C358.076 495.475 359.209 535.434 360.498 555.979C363.597 541.449 368.115 513.508 371.2 493.665C370.454 493.298 369.604 493.197 368.792 493.379Z" fill="black"/>
<path d="M390.131 471.154C390.131 471.154 394.493 532.192 393.608 557.086C392.683 582.983 380.405 667.756 380.405 667.756H366.578C366.578 667.756 366.07 584.428 365.458 559.052C364.781 531.319 361.435 471.141 361.435 471.141L390.131 471.154Z" fill="#263238"/>
<path d="M383.062 662.261C383.127 662.261 382.28 668.003 382.28 668.003H365.458L365.003 662.873L383.062 662.261Z" fill="#407BFF"/>
<path opacity="0.6" d="M383.062 662.261C383.127 662.261 382.28 668.003 382.28 668.003H365.458L365.003 662.873L383.062 662.261Z" fill="white"/>
<path d="M384.559 412.004C384.559 428.383 393.269 435.127 393.269 435.127L407.474 421.3C404.112 415.681 400.283 410.355 396.029 405.377C387.814 395.963 384.559 401.484 384.559 412.004Z" fill="#263238"/>
<path opacity="0.2" d="M380.809 381.068C380.519 381.889 380.033 382.627 379.394 383.217C378.754 383.807 377.979 384.232 377.137 384.454C376.212 384.643 375.371 385.124 374.741 385.828C374.11 386.531 373.722 387.419 373.635 388.36C375.321 387.796 376.85 386.842 378.096 385.574C379.343 384.307 380.273 382.763 380.809 381.068Z" fill="black"/>
<path d="M377.137 355.797C380.054 352.112 375.562 351.891 375.562 351.891C376.734 347.503 371.474 349.86 371.474 349.86C368.323 345.511 366.539 350.81 366.539 350.81C363.271 347.125 362.633 353.141 362.633 353.141C359.352 348.466 357.686 355.211 357.686 355.211C354.665 350.354 352.816 356.669 352.816 356.669C346.579 354.443 349.535 360.927 349.535 360.927C344.223 361.07 348.493 365.197 348.493 365.197C342.114 365.197 347.738 368.856 347.738 368.856C342.673 372.176 349.04 373.074 349.04 373.074C344.913 379.584 352.009 377.136 352.009 377.136C349.131 383.542 355.498 380.717 355.498 380.717C355.095 386.888 358.649 385.209 360.368 384.063C360.693 385.365 361.318 386.667 362.464 386.771C364.69 387.071 365.068 382.865 365.068 382.865C365.068 382.865 367.125 384.48 368.857 383.607C370.588 382.735 369.937 380.535 369.937 380.535C370.313 380.816 370.77 380.968 371.239 380.968C371.709 380.968 372.165 380.816 372.541 380.535C373.283 379.962 373.283 375.821 372.346 374.363L375.731 373.061C375.731 373.061 378.244 372.71 377.124 369.39C376.449 367.481 376.389 365.409 376.955 363.465C380.783 361.669 377.632 359.559 377.632 359.559C382.072 356.708 377.137 355.797 377.137 355.797Z" fill="#263238"/>
<path d="M370.276 371.642C370.806 373.584 371.964 375.297 373.57 376.511C375.692 378.1 377.281 376.511 377.124 374.129C376.994 371.967 375.718 368.543 373.375 367.892C371.031 367.241 369.716 369.337 370.276 371.642Z" fill="#B55B52"/>
<g filter="url(#filter1_d_105_280)">
<path d="M578.19 124.213C579.223 124.746 580.004 125.062 580.744 125.475C588.096 128.908 595.35 132.3 602.702 135.733C605.101 136.818 605.405 138.871 603.618 140.759C603.049 141.323 602.519 141.789 601.892 142.217C590.619 150.706 578.494 157.375 565.42 162.184C554.401 166.122 543.691 170.979 533.137 176.014C527.223 178.841 521.252 181.531 515.182 184.181C509.524 186.657 504.001 189.643 498.73 192.844C493.225 196.063 487.449 198.832 481.672 201.601C480.125 202.337 478.307 202.622 476.567 202.712C475.102 202.686 473.325 202.307 472.039 201.559C467.868 198.961 467.124 194.913 470.267 191.078C472.291 188.605 474.781 186.662 477.155 184.444C478.038 183.667 479.018 182.928 479.803 182.111C492.601 169.016 505.341 155.785 518.139 142.69C525.598 134.926 532.979 127.357 540.515 119.964C553.937 107.009 569.744 98.5391 587.857 94.1828C590.733 93.531 593.569 92.9768 596.541 92.3645C594.633 90.9101 593.676 90.7496 592.888 92.1335C591.816 91.6989 590.743 91.2643 589.67 90.8297C588.695 90.4347 587.817 90.0791 587.49 88.9247C587.355 88.4161 586.654 87.905 586.127 87.805C584 87.1703 581.735 86.5937 579.608 85.9591C578.886 85.7801 578.164 85.6011 577.481 85.3245C576.701 85.0084 575.293 85.1195 575.475 83.8306C575.638 82.3072 577.064 82.4307 578.118 82.6307C581.126 83.0542 584.133 83.4777 587.061 84.0963C595.222 85.8126 603.696 87.3153 611.812 90.2624C614.095 91.0735 616.298 92.0798 618.502 93.086C621.154 94.3873 621.673 96.1873 620.567 98.9182C619.856 100.674 618.776 101.939 617.247 102.909C614.504 104.637 611.858 106.403 609.097 107.896C599.715 112.837 590.275 117.642 580.894 122.584C580.032 123.03 579.268 123.515 578.19 124.213Z" fill="#2FAACF"/>
<path d="M549.503 127.994C557.06 130.577 564.617 133.16 572.071 135.702C574.577 136.597 577.04 137.595 579.545 138.49C581.085 139.114 582.397 140.004 582.636 141.774C582.834 143.646 581.902 145.061 580.335 145.98C579.015 146.879 577.531 147.592 576.089 148.203C542.911 163.441 510.019 179.153 477.962 196.637C476.004 197.637 474.046 198.636 471.985 199.593C470.604 200.348 469.142 200.712 467.75 199.431C466.459 198.191 466.589 196.69 467.171 195.253C468.729 191.702 470.39 188.193 472.153 184.725C475.699 178.036 479.39 171.286 482.936 164.597C486.917 157.129 490.652 149.68 494.736 142.253C498.944 134.518 503.42 127.01 507.792 119.461C509.761 116.076 511.627 112.65 513.678 109.06C512.549 108.603 511.523 108.187 510.599 107.813C507.478 106.668 504.213 105.584 501.133 104.337C497.335 102.798 496.894 100.349 499.745 97.441C501.542 95.6597 503.441 93.9199 505.444 92.2217C508.106 90.074 510.974 88.0094 513.697 86.0059C521.765 79.9537 529.935 73.9432 537.9 67.8495C540.768 65.7849 543.362 65.2821 546.483 66.4269C551.493 68.2175 556.545 69.9055 561.555 71.6961C572.951 75.7152 584.45 79.776 595.805 83.8977C598.824 85.001 601.8 86.2068 604.674 87.3711C605.701 87.7869 606.625 88.1612 607.568 88.7823C610.85 90.7093 611.311 93.4054 608.544 96.108C607.304 97.3982 605.84 98.3584 604.334 99.4212C594.413 105.918 583.86 111.321 573.245 116.581C566.259 119.964 559.047 123.017 551.897 126.215C551.031 126.581 550.166 126.948 549.362 127.458C549.423 127.603 549.484 127.747 549.503 127.994Z" fill="#FBFBFB"/>
<path d="M513.884 109.143C512.652 108.644 511.728 108.27 510.702 107.854C507.622 106.607 504.357 105.523 501.278 104.276C497.685 102.82 497.141 100.329 499.847 97.4826C501.5 95.7623 503.358 94.1252 505.319 92.5297C508.126 90.3208 510.993 88.2563 513.758 86.1501C521.97 80.0369 530.141 74.0263 538.147 67.83C540.768 65.7849 543.464 65.3237 546.585 66.4685C551.493 68.2175 556.442 69.8639 561.35 71.6129C572.849 75.6737 584.306 79.837 595.908 83.9393C598.824 85.001 601.698 86.1652 604.572 87.3295C605.393 87.6622 606.214 87.9948 606.994 88.4301C611.139 90.5871 611.639 93.777 607.945 96.7018C604.911 99.1769 601.508 101.383 598.085 103.342C584.478 110.974 570.749 118.318 556.368 124.322C554.06 125.299 551.855 126.318 549.259 127.417C550.344 128.573 551.64 128.62 552.666 129.036C561.147 131.993 569.73 134.992 578.211 137.95C578.929 138.241 579.69 138.429 580.469 138.865C583.116 140.295 583.638 143.136 581.367 145.203C580.108 146.246 578.582 147.062 577.098 147.776C565.455 153.216 553.811 158.656 542.168 164.096C521.621 173.816 501.319 184.112 481.26 194.986C478.498 196.496 475.633 197.964 472.809 199.33C472.191 199.676 471.47 199.982 470.832 200.082C468.588 200.607 466.845 199.303 467.061 197.001C467.252 195.644 467.69 194.268 468.333 192.976C472.503 184.747 476.776 176.56 481.006 168.476C485.714 159.509 490.278 150.603 495.191 141.72C499.316 134.19 503.75 126.785 508.039 119.442C510.008 116.057 511.874 112.631 513.884 109.143ZM475.002 191.853C475.165 192.039 475.329 192.225 475.534 192.308C507.324 174.596 540.338 159.172 573.336 142.906C571.18 142.032 569.579 141.264 567.895 140.702C559.784 138.013 551.733 135.469 543.621 132.78C542.759 132.55 541.937 132.218 541.158 131.782C538.142 130.083 537.908 127.12 540.612 124.87C541.83 123.929 543.314 123.216 544.797 122.503C553.329 118.55 562.044 115.03 570.453 110.79C580.677 105.611 590.511 99.9159 600.51 94.4069C601.273 93.999 602.016 93.3441 603.295 92.5477C600.728 91.5081 598.82 90.6154 596.828 89.928C579.805 83.8688 562.783 77.8095 545.802 71.6476C544.323 71.1681 543.458 71.5345 542.426 72.3115C534.358 78.3636 526.291 84.4158 518.223 90.4679C515.128 92.7989 512.033 95.1298 508.938 97.4607C508.236 98.0129 507.493 98.6678 506.522 99.589C507.754 100.088 508.678 100.462 509.499 100.795C512.517 101.898 515.577 102.899 518.41 104.166C521.037 105.349 521.584 107.244 520.195 109.788C518.018 113.686 515.697 117.645 513.418 121.501C508.652 129.727 503.825 137.809 499.264 146.118C492.277 158.941 485.537 171.745 478.736 184.404C477.491 186.887 476.246 189.37 475.002 191.853Z" fill="#2A4857"/>
</g>
<defs>
<filter id="filter0_bd_105_280" x="0.230469" y="11.8115" width="959.244" height="956.601" filterUnits="userSpaceOnUse" color-interpolation-filters="sRGB">
<feFlood flood-opacity="0" result="BackgroundImageFix"/>
<feGaussianBlur in="BackgroundImageFix" stdDeviation="10"/>
<feComposite in2="SourceAlpha" operator="in" result="effect1_backgroundBlur_105_280"/>
<feColorMatrix in="SourceAlpha" type="matrix" values="0 0 0 0 0 0 0 0 0 0 0 0 0 0 0 0 0 0 127 0" result="hardAlpha"/>
<feOffset dy="4"/>
<feGaussianBlur stdDeviation="50"/>
<feComposite in2="hardAlpha" operator="out"/>
<feColorMatrix type="matrix" values="0 0 0 0 0.14902 0 0 0 0 0.196078 0 0 0 0 0.219608 0 0 0 0.15 0"/>
<feBlend mode="normal" in2="effect1_backgroundBlur_105_280" result="effect2_dropShadow_105_280"/>
<feBlend mode="normal" in="SourceGraphic" in2="effect2_dropShadow_105_280" result="shape"/>
</filter>
<filter id="filter1_d_105_280" x="396.748" y="0.82666" width="314.365" height="296.886" filterUnits="userSpaceOnUse" color-interpolation-filters="sRGB">
<feFlood flood-opacity="0" result="BackgroundImageFix"/>
<feColorMatrix in="SourceAlpha" type="matrix" values="0 0 0 0 0 0 0 0 0 0 0 0 0 0 0 0 0 0 127 0" result="hardAlpha"/>
<feOffset dx="10" dy="15"/>
<feGaussianBlur stdDeviation="40"/>
<feComposite in2="hardAlpha" operator="out"/>
<feColorMatrix type="matrix" values="0 0 0 0 0 0 0 0 0 0 0 0 0 0 0 0 0 0 0.15 0"/>
<feBlend mode="normal" in2="BackgroundImageFix" result="effect1_dropShadow_105_280"/>
<feBlend mode="normal" in="SourceGraphic" in2="effect1_dropShadow_105_280" result="shape"/>
</filter>
</defs>
</svg>
